<svg width="60" height="60" viewBox="0 0 60 60" fill="none" xmlns="http://www.w3.org/2000/svg">
<g filter="url(#filter0_d_423_27924)">
<rect x="8.5" y="8.5" width="39" height="39" rx="7.5" fill="white" stroke="#E0E0E0"/>
<path fill-rule="evenodd" clip-rule="evenodd" d="M25.8863 18C25.8863 17.5858 26.2221 17.25 26.6363 17.25H29.3637C29.7779 17.25 30.1137 17.5858 30.1137 18V19.7885C30.8957 19.9893 31.6339 20.2987 32.3113 20.6995L33.5765 19.4344C33.8694 19.1415 34.3443 19.1415 34.6372 19.4344L36.5656 21.3628C36.8585 21.6557 36.8585 22.1306 36.5656 22.4235L35.3005 23.6887C35.7013 24.3661 36.0107 25.1043 36.2115 25.8863H38C38.4142 25.8863 38.75 26.2221 38.75 26.6363V29.3637C38.75 29.7779 38.4142 30.1137 38 30.1137H36.2115C36.0107 30.8957 35.7013 31.6339 35.3005 32.3113L36.5656 33.5765C36.8585 33.8694 36.8585 34.3443 36.5656 34.6372L34.6372 36.5656C34.3443 36.8585 33.8694 36.8585 33.5765 36.5656L32.3113 35.3005C31.6339 35.7013 30.8957 36.0107 30.1137 36.2115V38C30.1137 38.4142 29.7779 38.75 29.3637 38.75H26.6363C26.2221 38.75 25.8863 38.4142 25.8863 38V36.2115C25.1043 36.0107 24.3661 35.7013 23.6887 35.3005L22.4235 36.5656C22.1306 36.8585 21.6557 36.8585 21.3628 36.5656L19.4344 34.6372C19.1415 34.3443 19.1415 33.8694 19.4344 33.5765L20.6995 32.3113C20.2987 31.6339 19.9893 30.8957 19.7885 30.1137H18C17.5858 30.1137 17.25 29.7779 17.25 29.3637V26.6363C17.25 26.2221 17.5858 25.8863 18 25.8863H19.7885C19.9893 25.1043 20.2987 24.3661 20.6995 23.6887L19.4344 22.4235C19.1415 22.1306 19.1415 21.6557 19.4344 21.3628L21.3628 19.4344C21.6557 19.1415 22.1306 19.1415 22.4235 19.4344L23.6887 20.6995C24.3661 20.2987 25.1043 19.9893 25.8863 19.7885V18ZM27.3863 18.75V20.3927C27.3863 20.7562 27.1257 21.0673 26.7678 21.1311C25.7586 21.3107 24.8242 21.7076 24.0145 22.2722C23.7164 22.4801 23.3121 22.4443 23.0552 22.1873L21.8932 21.0253L21.0253 21.8932L22.1873 23.0552C22.4443 23.3121 22.4801 23.7164 22.2722 24.0145C21.7076 24.8242 21.3107 25.7586 21.1311 26.7678C21.0673 27.1257 20.7562 27.3863 20.3927 27.3863H18.75V28.6137H20.3927C20.7562 28.6137 21.0673 28.8743 21.1311 29.2322C21.3107 30.2414 21.7076 31.1758 22.2722 31.9855C22.4801 32.2836 22.4443 32.6879 22.1873 32.9448L21.0253 34.1068L21.8932 34.9746L23.0552 33.8127C23.3121 33.5557 23.7164 33.5199 24.0145 33.7278C24.8242 34.2924 25.7586 34.6893 26.7678 34.869C27.1257 34.9327 27.3863 35.2439 27.3863 35.6073V37.25H28.6137V35.6073C28.6137 35.2439 28.8743 34.9327 29.2322 34.869C30.2414 34.6893 31.1758 34.2924 31.9855 33.7278C32.2836 33.5199 32.6879 33.5557 32.9448 33.8127L34.1068 34.9746L34.9746 34.1068L33.8127 32.9448C33.5557 32.6879 33.5199 32.2836 33.7278 31.9855C34.2924 31.1758 34.6893 30.2414 34.869 29.2322C34.9327 28.8743 35.2439 28.6137 35.6073 28.6137H37.25V27.3863H35.6073C35.2439 27.3863 34.9327 27.1257 34.869 26.7678C34.6893 25.7586 34.2924 24.8242 33.7278 24.0145C33.5199 23.7164 33.5557 23.3121 33.8127 23.0552L34.9746 21.8932L34.1068 21.0253L32.9448 22.1873C32.6879 22.4443 32.2836 22.4801 31.9855 22.2722C31.1758 21.7076 30.2414 21.3107 29.2322 21.1311C28.8743 21.0673 28.6137 20.7562 28.6137 20.3927V18.75H27.3863Z" fill="#616161"/>
<path fill-rule="evenodd" clip-rule="evenodd" d="M24.75 28C24.75 26.2051 26.2051 24.75 28 24.75C29.7949 24.75 31.25 26.2051 31.25 28C31.25 29.7949 29.7949 31.25 28 31.25C26.2051 31.25 24.75 29.7949 24.75 28ZM28 26.25C27.0335 26.25 26.25 27.0335 26.25 28C26.25 28.9665 27.0335 29.75 28 29.75C28.9665 29.75 29.75 28.9665 29.75 28C29.75 27.0335 28.9665 26.25 28 26.25Z" fill="#616161"/>
</g>
<defs>
<filter id="filter0_d_423_27924" x="0" y="0" width="60" height="60" filterUnits="userSpaceOnUse" color-interpolation-filters="sRGB">
<feFlood flood-opacity="0" result="BackgroundImageFix"/>
<feColorMatrix in="SourceAlpha" type="matrix" values="0 0 0 0 0 0 0 0 0 0 0 0 0 0 0 0 0 0 127 0" result="hardAlpha"/>
<feOffset dx="2" dy="2"/>
<feGaussianBlur stdDeviation="5"/>
<feComposite in2="hardAlpha" operator="out"/>
<feColorMatrix type="matrix" values="0 0 0 0 0.733802 0 0 0 0 0.751002 0 0 0 0 0.804167 0 0 0 0.6 0"/>
<feBlend mode="normal" in2="BackgroundImageFix" result="effect1_dropShadow_423_27924"/>
<feBlend mode="normal" in="SourceGraphic" in2="effect1_dropShadow_423_27924" result="shape"/>
</filter>
</defs>
</svg>
