<svg width="60" height="60" viewBox="0 0 60 60" fill="none" xmlns="http://www.w3.org/2000/svg">
<g filter="url(#filter0_d_3310_39775)">
<rect x="8.5" y="8.5" width="39" height="39" rx="7.5" fill="white" stroke="#E0E0E0"/>
<path fill-rule="evenodd" clip-rule="evenodd" d="M22.4697 22.4697C22.7626 22.1768 23.2374 22.1768 23.5303 22.4697L33.5303 32.4697C33.8232 32.7626 33.8232 33.2374 33.5303 33.5303C33.2374 33.8232 32.7626 33.8232 32.4697 33.5303L22.4697 23.5303C22.1768 23.2374 22.1768 22.7626 22.4697 22.4697Z" fill="#FF3333"/>
<path fill-rule="evenodd" clip-rule="evenodd" d="M33.5303 22.4697C33.8232 22.7626 33.8232 23.2374 33.5303 23.5303L23.5303 33.5303C23.2374 33.8232 22.7626 33.8232 22.4697 33.5303C22.1768 33.2374 22.1768 32.7626 22.4697 32.4697L32.4697 22.4697C32.7626 22.1768 33.2374 22.1768 33.5303 22.4697Z" fill="#FF3333"/>
</g>
<defs>
<filter id="filter0_d_3310_39775" x="0" y="0" width="60" height="60" filterUnits="userSpaceOnUse" color-interpolation-filters="sRGB">
<feFlood flood-opacity="0" result="BackgroundImageFix"/>
<feColorMatrix in="SourceAlpha" type="matrix" values="0 0 0 0 0 0 0 0 0 0 0 0 0 0 0 0 0 0 127 0" result="hardAlpha"/>
<feOffset dx="2" dy="2"/>
<feGaussianBlur stdDeviation="5"/>
<feComposite in2="hardAlpha" operator="out"/>
<feColorMatrix type="matrix" values="0 0 0 0 0.733802 0 0 0 0 0.751002 0 0 0 0 0.804167 0 0 0 0.6 0"/>
<feBlend mode="normal" in2="BackgroundImageFix" result="effect1_dropShadow_3310_39775"/>
<feBlend mode="normal" in="SourceGraphic" in2="effect1_dropShadow_3310_39775" result="shape"/>
</filter>
</defs>
</svg>
