<svg width="60" height="60" viewBox="0 0 60 60" fill="none" xmlns="http://www.w3.org/2000/svg">
<g filter="url(#filter0_d_21_23323)">
<rect x="8.5" y="8.5" width="39" height="39" rx="7.5" fill="white" stroke="#E0E0E0"/>
<path fill-rule="evenodd" clip-rule="evenodd" d="M21.1481 24.3669C22.8878 22.8762 25.3056 21.75 28 21.75C30.6943 21.75 33.112 22.8754 34.8519 24.3658C36.5623 25.831 37.75 27.7704 37.75 29.5C37.75 31.2296 36.5623 33.169 34.8519 34.6342C33.112 36.1246 30.6943 37.25 28 37.25C25.3056 37.25 22.8878 36.1238 21.1481 34.6331C19.4378 33.1677 18.25 31.2282 18.25 29.5C18.25 27.7718 19.4378 25.8323 21.1481 24.3669ZM22.124 25.506C20.577 26.8316 19.75 28.3921 19.75 29.5C19.75 30.6079 20.577 32.1684 22.124 33.494C23.6416 34.7943 25.7239 35.75 28 35.75C30.2763 35.75 32.3586 34.7949 33.876 33.495C35.4229 32.1699 36.25 30.6094 36.25 29.5C36.25 28.3906 35.4229 26.83 33.876 25.505C32.3586 24.2051 30.2763 23.25 28 23.25C25.7239 23.25 23.6416 24.2057 22.124 25.506Z" fill="#616161"/>
<path fill-rule="evenodd" clip-rule="evenodd" d="M24.25 29.5C24.25 27.4289 25.9289 25.75 28 25.75C30.0711 25.75 31.75 27.4289 31.75 29.5C31.75 31.5711 30.0711 33.25 28 33.25C25.9289 33.25 24.25 31.5711 24.25 29.5ZM28 27.25C26.7574 27.25 25.75 28.2574 25.75 29.5C25.75 30.7426 26.7574 31.75 28 31.75C29.2426 31.75 30.25 30.7426 30.25 29.5C30.25 28.2574 29.2426 27.25 28 27.25Z" fill="#616161"/>
<path fill-rule="evenodd" clip-rule="evenodd" d="M22.195 21.0234C22.5317 20.7821 23.0002 20.8594 23.2415 21.1961L24.5388 23.0062C24.78 23.3429 24.7027 23.8114 24.366 24.0527C24.0294 24.294 23.5608 24.2167 23.3195 23.88L22.0223 22.0699C21.781 21.7332 21.8583 21.2647 22.195 21.0234Z" fill="#616161"/>
<path fill-rule="evenodd" clip-rule="evenodd" d="M34.2494 21.2456C34.5861 21.4869 34.6634 21.9554 34.4221 22.2921L33.1248 24.1022C32.8835 24.4388 32.415 24.5162 32.0783 24.2749C31.7416 24.0336 31.6643 23.565 31.9056 23.2284L33.2029 21.4183C33.4442 21.0816 33.9127 21.0043 34.2494 21.2456Z" fill="#616161"/>
<path fill-rule="evenodd" clip-rule="evenodd" d="M28.0044 18.75C28.4186 18.75 28.7544 19.0858 28.7544 19.5V22.5C28.7544 22.9142 28.4186 23.25 28.0044 23.25C27.5902 23.25 27.2544 22.9142 27.2544 22.5V19.5C27.2544 19.0858 27.5902 18.75 28.0044 18.75Z" fill="#616161"/>
</g>
<defs>
<filter id="filter0_d_21_23323" x="0" y="0" width="60" height="60" filterUnits="userSpaceOnUse" color-interpolation-filters="sRGB">
<feFlood flood-opacity="0" result="BackgroundImageFix"/>
<feColorMatrix in="SourceAlpha" type="matrix" values="0 0 0 0 0 0 0 0 0 0 0 0 0 0 0 0 0 0 127 0" result="hardAlpha"/>
<feOffset dx="2" dy="2"/>
<feGaussianBlur stdDeviation="5"/>
<feComposite in2="hardAlpha" operator="out"/>
<feColorMatrix type="matrix" values="0 0 0 0 0.733802 0 0 0 0 0.751002 0 0 0 0 0.804167 0 0 0 0.6 0"/>
<feBlend mode="normal" in2="BackgroundImageFix" result="effect1_dropShadow_21_23323"/>
<feBlend mode="normal" in="SourceGraphic" in2="effect1_dropShadow_21_23323" result="shape"/>
</filter>
</defs>
</svg>
