<svg width="60" height="60" viewBox="0 0 60 60" fill="none" xmlns="http://www.w3.org/2000/svg">
<g filter="url(#filter0_d_21_23296)">
<rect x="8.5" y="8.5" width="39" height="39" rx="7.5" fill="white" stroke="#E0E0E0"/>
<path fill-rule="evenodd" clip-rule="evenodd" d="M33.204 26.7959L35 24.9999C35.5453 24.4547 35.8179 24.1821 35.9636 23.888C36.2409 23.3284 36.2409 22.6715 35.9636 22.1119C35.8179 21.8178 35.5453 21.5452 35 20.9999C34.4548 20.4547 34.1821 20.1821 33.888 20.0363C33.3285 19.759 32.6715 19.759 32.112 20.0363C31.8179 20.1821 31.5453 20.4547 31 20.9999L29.1814 22.8186C30.1452 24.4692 31.5314 25.8448 33.204 26.7959ZM27.7269 24.2731L20.8564 31.1436C20.4313 31.5686 20.2188 31.7812 20.0791 32.0422C19.9393 32.3033 19.8804 32.5981 19.7625 33.1875L19.1471 36.2645C19.0806 36.5971 19.0473 36.7634 19.1419 36.858C19.2365 36.9526 19.4028 36.9194 19.7355 36.8529L22.8124 36.2375C23.4019 36.1196 23.6966 36.0606 23.9577 35.9209C24.2188 35.7812 24.4313 35.5686 24.8564 35.1436L31.7458 28.2542C30.1241 27.2385 28.7524 25.8762 27.7269 24.2731Z" fill="#004CE8"/>
</g>
<defs>
<filter id="filter0_d_21_23296" x="0" y="0" width="60" height="60" filterUnits="userSpaceOnUse" color-interpolation-filters="sRGB">
<feFlood flood-opacity="0" result="BackgroundImageFix"/>
<feColorMatrix in="SourceAlpha" type="matrix" values="0 0 0 0 0 0 0 0 0 0 0 0 0 0 0 0 0 0 127 0" result="hardAlpha"/>
<feOffset dx="2" dy="2"/>
<feGaussianBlur stdDeviation="5"/>
<feComposite in2="hardAlpha" operator="out"/>
<feColorMatrix type="matrix" values="0 0 0 0 0.733802 0 0 0 0 0.751002 0 0 0 0 0.804167 0 0 0 0.6 0"/>
<feBlend mode="normal" in2="BackgroundImageFix" result="effect1_dropShadow_21_23296"/>
<feBlend mode="normal" in="SourceGraphic" in2="effect1_dropShadow_21_23296" result="shape"/>
</filter>
</defs>
</svg>
