<svg width="24" height="24" viewBox="0 0 24 24" fill="none" xmlns="http://www.w3.org/2000/svg">
<path fill-rule="evenodd" clip-rule="evenodd" d="M5.14806 8.36687C6.88785 6.87618 9.30557 5.74994 12 5.74994C14.6943 5.74994 17.112 6.87534 18.8519 8.36572C20.5623 9.83089 21.75 11.7703 21.75 13.4999C21.75 15.2295 20.5623 17.169 18.8519 18.6341C17.112 20.1245 14.6943 21.2499 12 21.2499C9.30557 21.2499 6.88785 20.1237 5.14806 18.633C3.43777 17.1676 2.25 15.2282 2.25 13.4999C2.25 11.7717 3.43777 9.83228 5.14806 8.36687ZM6.12403 9.50593C4.57695 10.8315 3.75 12.3921 3.75 13.4999C3.75 14.6078 4.57695 16.1684 6.12403 17.4939C7.6416 18.7942 9.72388 19.7499 12 19.7499C14.2763 19.7499 16.3586 18.7948 17.876 17.495C19.4229 16.1699 20.25 14.6093 20.25 13.4999C20.25 12.3905 19.4229 10.83 17.876 9.50491C16.3586 8.20504 14.2763 7.24994 12 7.24994C9.72388 7.24994 7.6416 8.20565 6.12403 9.50593Z" fill="#616161"/>
<path fill-rule="evenodd" clip-rule="evenodd" d="M8.25 13.4999C8.25 11.4289 9.92894 9.74994 12 9.74994C14.0711 9.74994 15.75 11.4289 15.75 13.4999C15.75 15.571 14.0711 17.2499 12 17.2499C9.92894 17.2499 8.25 15.571 8.25 13.4999ZM12 11.2499C10.7574 11.2499 9.75 12.2573 9.75 13.4999C9.75 14.7426 10.7574 15.7499 12 15.7499C13.2426 15.7499 14.25 14.7426 14.25 13.4999C14.25 12.2573 13.2426 11.2499 12 11.2499Z" fill="#616161"/>
<path fill-rule="evenodd" clip-rule="evenodd" d="M6.195 5.02338C6.53168 4.78209 7.00022 4.85942 7.2415 5.1961L8.53875 7.0062C8.78004 7.34288 8.70271 7.81141 8.36604 8.0527C8.02936 8.29399 7.56082 8.21666 7.31953 7.87998L6.02228 6.06988C5.78099 5.7332 5.85832 5.26467 6.195 5.02338Z" fill="#616161"/>
<path fill-rule="evenodd" clip-rule="evenodd" d="M18.2494 5.24556C18.5861 5.48685 18.6634 5.95539 18.4221 6.29206L17.1248 8.10216C16.8835 8.43884 16.415 8.51616 16.0783 8.27486C15.7416 8.03357 15.6643 7.56503 15.9056 7.22836L17.2029 5.41826C17.4442 5.08158 17.9127 5.00426 18.2494 5.24556Z" fill="#616161"/>
<path fill-rule="evenodd" clip-rule="evenodd" d="M12.0044 2.74994C12.4186 2.74994 12.7544 3.08573 12.7544 3.49994V6.49995C12.7544 6.91416 12.4186 7.24995 12.0044 7.24995C11.5902 7.24995 11.2544 6.91416 11.2544 6.49995V3.49994C11.2544 3.08573 11.5902 2.74994 12.0044 2.74994Z" fill="#616161"/>
</svg>
