<svg width="182" height="80" viewBox="0 0 182 80" fill="none" xmlns="http://www.w3.org/2000/svg">
<path d="M86.5985 24.4588C84.7097 24.4588 83.2371 23.7381 82.2492 22.3463L82.3299 23.8748C82.3299 23.9572 82.2972 24.0362 82.2389 24.0945C82.1807 24.1527 82.1017 24.1855 82.0193 24.1855H79.2233C79.1409 24.1855 79.0619 24.1527 79.0036 24.0945C78.9453 24.0362 78.9126 23.9572 78.9126 23.8748L79.0244 14.0391L78.9126 5.02969C78.9126 4.9473 78.9453 4.86828 79.0036 4.81002C79.0619 4.75176 79.1409 4.71902 79.2233 4.71902H82.0193C82.1017 4.71902 82.1807 4.75176 82.2389 4.81002C82.2972 4.86828 82.3299 4.9473 82.3299 5.02969L82.2927 11.7681C82.7852 11.0782 83.439 10.5194 84.1972 10.1404C84.9553 9.76129 85.7946 9.57351 86.642 9.5934C90.6154 9.5934 92.6969 12.8181 92.6969 16.9842C92.6969 21.1502 90.4321 24.4588 86.5985 24.4588ZM85.6665 22.0418C88.1115 22.0978 89.2765 20.1778 89.2765 17.1519C89.2765 13.9024 88.0835 11.9824 85.7504 12.0104C83.4981 12.0104 82.1933 13.6507 82.1653 16.8754C82.1529 20.181 83.4297 22.0201 85.6821 22.0418H85.6665Z" fill="white"/>
<path d="M99.4353 24.5054C96.4622 24.5054 94.5734 22.5047 94.5734 18.8917V15.9465L94.4895 10.1681C94.4895 10.0857 94.5222 10.0067 94.5805 9.94844C94.6388 9.89018 94.7178 9.85745 94.8002 9.85745H97.5775C97.6599 9.85745 97.7389 9.89018 97.7972 9.94844C97.8555 10.0067 97.8882 10.0857 97.8882 10.1681L97.8043 15.9465V18.8109C97.8043 20.8395 98.9165 21.8927 100.445 21.8927C102.113 21.8927 103.698 20.4761 103.974 17.503V15.9496L103.918 10.1712C103.918 10.0888 103.951 10.0098 104.009 9.95155C104.068 9.89329 104.147 9.86056 104.229 9.86056H107.065C107.148 9.86056 107.227 9.89329 107.285 9.95155C107.343 10.0098 107.376 10.0888 107.376 10.1712L107.236 16.5896L107.32 23.8686C107.32 23.9509 107.287 24.03 107.229 24.0882C107.171 24.1465 107.092 24.1792 107.009 24.1792H104.369C104.286 24.1792 104.207 24.1465 104.149 24.0882C104.091 24.03 104.058 23.9509 104.058 23.8686L104.142 22.0915C103.615 22.8481 102.91 23.4638 102.089 23.8846C101.269 24.3055 100.357 24.5186 99.4353 24.5054Z" fill="white"/>
<path d="M115.969 24.5054C112.08 24.5054 109.383 22.8371 109.218 19.5876C109.218 19.5052 109.251 19.4261 109.309 19.3679C109.368 19.3096 109.447 19.2769 109.529 19.2769H112.17C112.252 19.2769 112.331 19.3096 112.389 19.3679C112.448 19.4261 112.48 19.5052 112.48 19.5876C112.62 21.4516 113.813 22.2842 116.037 22.2842C117.901 22.2842 119.066 21.5323 119.066 20.1996C119.066 17.0308 109.535 19.8392 109.535 13.9458C109.535 11.0566 111.868 9.52814 115.509 9.52814C119.011 9.52814 121.483 10.9758 121.723 13.921C121.729 13.9603 121.727 14.0006 121.716 14.0389C121.705 14.0773 121.685 14.1126 121.659 14.1424C121.632 14.1722 121.599 14.1957 121.563 14.2111C121.526 14.2266 121.486 14.2336 121.446 14.2316H118.961C118.872 14.2377 118.784 14.2084 118.717 14.1503C118.649 14.0921 118.608 14.0097 118.6 13.921C118.377 12.5012 117.293 11.6966 115.46 11.6966C113.791 11.6966 112.738 12.3179 112.738 13.6973C112.738 16.7822 122.266 13.8651 122.266 19.9107C122.248 22.8465 119.526 24.5054 115.969 24.5054Z" fill="white"/>
<path d="M130.682 24.5054C126.24 24.5054 123.683 21.5883 123.683 17.0494C123.683 12.5106 126.24 9.51883 130.766 9.51883C134.351 9.51883 136.629 11.5475 136.98 14.5765C136.986 14.616 136.983 14.6564 136.971 14.6947C136.96 14.733 136.94 14.7683 136.913 14.798C136.887 14.8277 136.854 14.8511 136.817 14.8665C136.78 14.882 136.74 14.889 136.7 14.8872H134.215C134.127 14.888 134.042 14.8569 133.976 14.7998C133.91 14.7426 133.866 14.6632 133.854 14.5765C133.494 12.7715 132.301 11.911 130.797 11.911C128.312 11.911 127.159 13.688 127.159 17.0215C127.159 20.4668 128.324 22.1071 130.769 22.135C132.522 22.163 133.798 21.0508 134.022 19.0284C134.032 18.9458 134.071 18.8694 134.132 18.8126C134.193 18.7558 134.271 18.7222 134.355 18.7177H136.911C136.951 18.7158 136.991 18.7228 137.028 18.7382C137.064 18.7537 137.097 18.7771 137.124 18.8069C137.15 18.8367 137.17 18.8721 137.181 18.9104C137.192 18.9487 137.194 18.989 137.188 19.0284C136.809 22.2096 134.364 24.5054 130.682 24.5054Z" fill="white"/>
<path d="M149.148 24.1948C149.066 24.1948 148.987 24.162 148.929 24.1038C148.87 24.0455 148.838 23.9665 148.838 23.8841L148.894 22.2189C148.411 22.934 147.756 23.5153 146.988 23.9086C146.221 24.3019 145.366 24.4944 144.504 24.4682C140.558 24.4682 138.446 21.2465 138.446 17.0774C138.446 12.9082 140.726 9.60272 144.56 9.60272C146.449 9.60272 147.921 10.3545 148.909 11.7153L148.853 10.1868C148.853 10.1044 148.886 10.0254 148.944 9.9671C149.002 9.90884 149.081 9.87611 149.164 9.87611H151.941C152.024 9.87611 152.103 9.90884 152.161 9.9671C152.219 10.0254 152.252 10.1044 152.252 10.1868L152.143 16.9935L152.252 23.8841C152.252 23.9665 152.219 24.0455 152.161 24.1038C152.103 24.162 152.024 24.1948 151.941 24.1948H149.148ZM145.42 22.1102C147.645 22.1102 148.949 20.4419 148.977 17.1395C149.005 13.8371 147.753 11.998 145.476 11.9731C143.031 11.9452 141.863 13.8061 141.863 16.863C141.866 20.1809 143.062 22.0978 145.423 22.0978L145.42 22.1102Z" fill="white"/>
<path d="M154.815 24.1948C154.733 24.1948 154.654 24.162 154.595 24.1038C154.537 24.0455 154.504 23.9665 154.504 23.8841L154.616 16.9655L154.504 10.1868C154.504 10.1044 154.537 10.0254 154.595 9.9671C154.654 9.90883 154.733 9.8761 154.815 9.8761H157.568C157.65 9.8761 157.729 9.90883 157.787 9.9671C157.845 10.0254 157.878 10.1044 157.878 10.1868L157.794 12.4112C158.851 10.659 160.739 9.77048 162.765 9.77048C162.989 9.77407 163.212 9.79275 163.433 9.8264C163.518 9.84249 163.595 9.88688 163.651 9.95233C163.708 10.0178 163.74 10.1004 163.744 10.1868V12.1875C163.743 12.2267 163.734 12.2653 163.718 12.301C163.702 12.3366 163.678 12.3686 163.649 12.3948C163.62 12.421 163.586 12.441 163.549 12.4534C163.511 12.4658 163.472 12.4705 163.433 12.4671C163.227 12.442 163.019 12.4327 162.812 12.4391C160.146 12.4391 158.034 13.9645 157.866 17.1892L157.894 23.8841C157.894 23.9665 157.861 24.0455 157.803 24.1038C157.745 24.162 157.665 24.1948 157.583 24.1948H154.815Z" fill="white"/>
<path d="M82.3176 42.4869L82.4295 47.5166C82.4295 47.599 82.3967 47.678 82.3385 47.7362C82.2802 47.7945 82.2012 47.8272 82.1188 47.8272H79.2296C79.1472 47.8272 79.0682 47.7945 79.0099 47.7362C78.9517 47.678 78.9189 47.599 78.9189 47.5166L79.0308 42.4869L78.9749 33.8192C78.9749 33.7368 79.0076 33.6578 79.0659 33.5996C79.1241 33.5413 79.2031 33.5086 79.2855 33.5086H81.9511C82.0335 33.5086 82.1125 33.5413 82.1707 33.5996C82.229 33.6578 82.2617 33.7368 82.2617 33.8192L82.1778 35.5963C83.1098 34.1516 84.455 33.1793 86.4557 33.1793C88.4564 33.1793 89.901 34.0678 90.541 36.0157C91.6812 33.959 93.1258 33.1793 94.9867 33.1793C97.82 33.1793 99.4883 34.9314 99.4883 38.793V42.4869L99.569 47.5166C99.569 47.599 99.5363 47.678 99.478 47.7362C99.4198 47.7945 99.3407 47.8272 99.2583 47.8272H96.4251C96.3427 47.8272 96.2636 47.7945 96.2054 47.7362C96.1471 47.678 96.1144 47.599 96.1144 47.5166L96.2262 42.4869V38.8769C96.2262 36.7022 95.2942 35.792 93.8931 35.792C92.6163 35.792 91.3363 37.1247 90.92 39.5417V42.4869L91.0319 47.5166C91.0319 47.599 90.9991 47.678 90.9409 47.7362C90.8826 47.7945 90.8036 47.8272 90.7212 47.8272H87.8599C87.7776 47.8272 87.6985 47.7945 87.6403 47.7362C87.582 47.678 87.5493 47.599 87.5493 47.5166L87.6611 42.4869V38.8769C87.6611 36.7022 86.7695 35.792 85.3529 35.792C83.9362 35.792 82.5755 37.3453 82.2959 40.1817L82.3176 42.4869Z" fill="white"/>
<path d="M114.717 42.9311C114.756 42.9323 114.795 42.9413 114.83 42.9577C114.865 42.9742 114.897 42.9976 114.923 43.0266C114.949 43.0557 114.969 43.0897 114.982 43.1267C114.995 43.1637 115 43.2028 114.997 43.2418C114.58 45.9632 112.247 48.1597 108.439 48.1597C103.797 48.1597 101.324 45.0747 101.324 40.7036C101.324 36.1741 103.965 33.173 108.327 33.173C112.747 33.173 115.22 36.1182 115.329 40.9801C115.329 41.0625 115.296 41.1415 115.238 41.1998C115.18 41.2581 115.101 41.2908 115.018 41.2908H104.689C104.825 44.3478 106.077 45.7924 108.466 45.7924C110.219 45.7924 111.356 44.9567 111.747 43.2356C111.758 43.1483 111.801 43.0681 111.867 43.0107C111.934 42.9533 112.02 42.9227 112.107 42.9249L114.717 42.9311ZM108.314 35.5155C106.314 35.5155 105.149 36.7364 104.785 39.0416H111.732C111.607 37.1807 110.523 35.5155 108.314 35.5155ZM106.009 32.0702C105.928 32.0912 105.842 32.0831 105.766 32.0474C105.69 32.0116 105.628 31.9505 105.593 31.8745L105.149 30.7623C105.127 30.6844 105.132 30.6017 105.161 30.5267C105.191 30.4516 105.244 30.3882 105.313 30.346L111.527 27.5686C111.558 27.5501 111.594 27.539 111.631 27.536C111.668 27.533 111.705 27.5382 111.739 27.5513C111.774 27.5644 111.805 27.585 111.83 27.6116C111.856 27.6383 111.875 27.6703 111.887 27.7053L112.583 29.7619C112.598 29.8391 112.584 29.9193 112.542 29.9862C112.501 30.0531 112.435 30.1017 112.359 30.1223L106.009 32.0702Z" fill="white"/>
<path d="M127.417 47.8241C127.335 47.8241 127.256 47.7914 127.198 47.7332C127.139 47.6749 127.107 47.5959 127.107 47.5135L127.162 45.8763C126.677 46.5863 126.021 47.1632 125.254 47.5545C124.488 47.9458 123.636 48.1389 122.776 48.1162C118.83 48.1162 116.721 44.8945 116.721 40.7254C116.721 36.5562 118.998 33.2507 122.832 33.2507C124.696 33.2507 126.165 33.9746 127.141 35.3074L127.085 28.6932C127.085 28.6108 127.118 28.5318 127.176 28.4736C127.234 28.4153 127.313 28.3826 127.395 28.3826H130.191C130.274 28.3826 130.353 28.4153 130.411 28.4736C130.469 28.5318 130.502 28.6108 130.502 28.6932L130.39 37.6405L130.502 47.5321C130.502 47.6145 130.469 47.6935 130.411 47.7518C130.353 47.8101 130.274 47.8428 130.191 47.8428L127.417 47.8241ZM123.689 45.7675C125.914 45.7675 127.218 44.0992 127.246 40.7968C127.274 37.4944 126.025 35.5994 123.745 35.5714C121.3 35.5186 120.135 37.4354 120.135 40.5172C120.138 43.8227 121.331 45.7675 123.692 45.7675H123.689Z" fill="white"/>
<path d="M133.224 47.8242C133.141 47.8242 133.062 47.7914 133.004 47.7332C132.946 47.6749 132.913 47.5959 132.913 47.5135L133.025 40.567L132.919 33.8255C132.919 33.7431 132.952 33.6641 133.01 33.6058C133.068 33.5475 133.147 33.5148 133.23 33.5148H136.066C136.148 33.5148 136.228 33.5475 136.286 33.6058C136.344 33.6641 136.377 33.7431 136.377 33.8255L136.265 40.5763L136.377 47.5228C136.377 47.6052 136.344 47.6842 136.286 47.7425C136.228 47.8007 136.148 47.8335 136.066 47.8335L133.224 47.8242ZM133.251 31.9801C133.169 31.9801 133.09 31.9474 133.032 31.8891C132.974 31.8309 132.941 31.7518 132.941 31.6694V28.976C132.941 28.8936 132.974 28.8145 133.032 28.7563C133.09 28.698 133.169 28.6653 133.251 28.6653H136.047C136.13 28.6653 136.209 28.698 136.267 28.7563C136.325 28.8145 136.358 28.8936 136.358 28.976V31.6694C136.358 31.7518 136.325 31.8309 136.267 31.8891C136.209 31.9474 136.13 31.9801 136.047 31.9801H133.251Z" fill="white"/>
<path d="M145.368 48.1566C140.922 48.1566 138.365 45.2394 138.365 40.7005C138.365 36.1617 140.922 33.17 145.452 33.17C149.037 33.17 151.314 35.1986 151.646 38.2276C151.653 38.267 151.65 38.3073 151.639 38.3456C151.628 38.3839 151.609 38.4193 151.582 38.4491C151.556 38.4788 151.523 38.5023 151.486 38.5178C151.449 38.5332 151.41 38.5402 151.37 38.5383H148.884C148.797 38.5405 148.711 38.5099 148.644 38.4525C148.578 38.3951 148.535 38.3149 148.524 38.2276C148.161 36.4226 146.971 35.559 145.467 35.559C142.982 35.559 141.826 37.3391 141.826 40.6726C141.826 44.1179 142.994 45.7582 145.439 45.7862C147.188 45.8141 148.468 44.7019 148.689 42.6795C148.699 42.5964 148.738 42.5196 148.8 42.4627C148.861 42.4059 148.941 42.3726 149.024 42.3688H151.578C151.618 42.367 151.658 42.374 151.695 42.3895C151.731 42.4049 151.764 42.4283 151.791 42.458C151.818 42.4877 151.838 42.523 151.849 42.5613C151.861 42.5996 151.864 42.64 151.858 42.6795C151.497 45.8514 149.065 48.1566 145.368 48.1566Z" fill="white"/>
<path d="M160.233 48.1566C155.731 48.1566 153.147 45.2394 153.147 40.7005C153.147 36.1617 155.731 33.17 160.233 33.17C164.735 33.17 167.263 36.0871 167.263 40.626C167.263 45.1648 164.735 48.1566 160.233 48.1566ZM160.233 45.7955C162.65 45.7955 163.818 44.1272 163.818 40.7099C163.818 37.2925 162.622 35.5435 160.205 35.5435C157.788 35.5435 156.567 37.3484 156.567 40.7378C156.567 44.1272 157.788 45.7955 160.233 45.7955Z" fill="white"/>
<path d="M175.21 48.1565C171.321 48.1565 168.627 46.4883 168.459 43.2387C168.459 43.1563 168.492 43.0773 168.55 43.019C168.609 42.9607 168.688 42.928 168.77 42.928H171.411C171.493 42.928 171.572 42.9607 171.631 43.019C171.689 43.0773 171.721 43.1563 171.721 43.2387C171.861 45.1027 173.057 45.9322 175.279 45.9322C177.143 45.9322 178.308 45.1835 178.308 43.8507C178.308 40.6819 168.776 43.4872 168.776 37.597C168.776 34.7077 171.113 33.1793 174.75 33.1793C178.252 33.1793 180.725 34.6239 180.964 37.569C180.97 37.6085 180.967 37.6489 180.956 37.6872C180.944 37.7255 180.924 37.7608 180.898 37.7905C180.871 37.8202 180.838 37.8436 180.801 37.859C180.764 37.8744 180.724 37.8815 180.684 37.8797H178.199C178.11 37.8849 178.023 37.8553 177.956 37.7973C177.888 37.7394 177.846 37.6575 177.839 37.569C177.615 36.1524 176.534 35.3477 174.698 35.3477C173.033 35.3477 171.976 35.9691 171.976 37.3484C171.976 40.4333 181.508 37.5131 181.508 43.5618C181.492 46.4883 178.767 48.1565 175.21 48.1565Z" fill="white"/>
<path d="M88.8572 66.8805C90.0998 66.2591 90.7212 65.1967 90.7212 63.6868C90.7212 61.2574 88.705 59.8066 85.3311 59.8066H79.4999C79.4244 59.807 79.3497 59.8222 79.2802 59.8515C79.2106 59.8808 79.1475 59.9235 79.0944 59.9771C79.0413 60.0308 78.9993 60.0944 78.9708 60.1642C78.9423 60.2341 78.9278 60.3089 78.9282 60.3844L79.0525 67.2812L78.9282 74.4048C78.9291 74.5559 78.9896 74.7005 79.0968 74.807C79.2039 74.9136 79.3488 74.9734 79.4999 74.9734H85.4026C88.9442 74.9734 91.1437 73.1777 91.1437 70.2885C91.1721 69.5516 90.966 68.8247 90.5552 68.2123C90.1443 67.5999 89.5498 67.1336 88.8572 66.8805ZM85.3559 65.7652H82.1468L82.2337 62.3758H85.3559C86.1606 62.3758 87.5151 62.5964 87.5151 64.0814C87.5151 65.2029 86.7881 65.7652 85.3559 65.7652ZM87.8879 70.2885C87.8879 71.7331 87.0833 72.4073 85.3559 72.4073H82.2337L82.1468 68.3095H85.3559C86.3004 68.3095 87.8879 68.5705 87.8879 70.2885Z" fill="white"/>
<path d="M107.597 68.9744C109.638 68.2785 110.756 66.7314 110.756 64.5784C110.756 61.4997 108.672 59.8066 104.888 59.8066H99.4479C99.3724 59.807 99.2977 59.8222 99.2282 59.8515C99.1586 59.8808 99.0955 59.9235 99.0424 59.9771C98.9893 60.0308 98.9473 60.0944 98.9188 60.1642C98.8903 60.2341 98.8758 60.3089 98.8762 60.3844L98.9819 67.303L98.8762 74.4048C98.8771 74.5559 98.9376 74.7005 99.0448 74.807C99.1519 74.9136 99.2968 74.9734 99.4479 74.9734H101.623C101.698 74.9734 101.772 74.9585 101.842 74.9296C101.912 74.9006 101.975 74.8582 102.028 74.8048C102.081 74.7514 102.123 74.6881 102.152 74.6183C102.18 74.5486 102.195 74.474 102.194 74.3986L102.101 69.3689H104.195L105.866 71.9164L107.457 74.6192C107.464 74.6338 107.474 74.6474 107.485 74.6596C107.558 74.7548 107.652 74.8322 107.76 74.886C107.868 74.9398 107.986 74.9686 108.106 74.9703H110.592C110.679 74.9718 110.766 74.9488 110.841 74.9037C110.916 74.8587 110.977 74.7935 111.017 74.7155C111.054 74.643 111.07 74.5619 111.064 74.4809C111.058 74.3999 111.03 74.322 110.983 74.2557L107.597 68.9744ZM107.597 64.625C107.597 66.3586 106.23 66.722 105.083 66.722H102.101L102.172 62.4441H105.065C106.761 62.4379 107.609 63.1711 107.609 64.6188L107.597 64.625Z" fill="white"/>
<path d="M127.433 60.2508C127.385 60.1233 127.301 60.013 127.19 59.9338C127.079 59.8547 126.948 59.8104 126.811 59.8066H123.848C123.712 59.809 123.581 59.8521 123.47 59.9302C123.359 60.0083 123.274 60.1178 123.226 60.2446L118.287 74.2961C118.256 74.3702 118.245 74.4506 118.253 74.5303C118.261 74.6099 118.289 74.6863 118.333 74.7528C118.379 74.8211 118.441 74.877 118.514 74.9155C118.586 74.954 118.667 74.9739 118.75 74.9734H120.881C121.018 74.9735 121.151 74.9308 121.263 74.8511C121.374 74.7714 121.458 74.6588 121.502 74.5291L122.645 71.003H127.858L129.036 74.5229C129.081 74.6512 129.166 74.7622 129.277 74.8406C129.388 74.9191 129.521 74.9611 129.657 74.9609H131.832C131.914 74.9627 131.995 74.944 132.069 74.9066C132.142 74.8692 132.205 74.8142 132.251 74.7466C132.295 74.6814 132.322 74.6068 132.33 74.5289C132.339 74.4511 132.329 74.3723 132.301 74.2992L127.433 60.2508ZM123.537 68.207L125.208 63.0282L126.942 68.2226L123.537 68.207Z" fill="white"/>
<path d="M146.455 65.7155C144.28 65.3209 142.982 65.0041 142.982 63.9167C142.982 62.5218 144.404 62.2298 145.597 62.2298C147.461 62.2298 148.462 62.907 148.611 64.2616C148.636 64.4012 148.707 64.5281 148.814 64.6214C148.921 64.7146 149.056 64.7685 149.198 64.7742H151.41C151.484 64.7742 151.557 64.7594 151.625 64.7306C151.693 64.7018 151.754 64.6596 151.806 64.6066C151.857 64.5535 151.897 64.4907 151.923 64.4218C151.95 64.3529 151.962 64.2794 151.96 64.2056C151.961 64.1901 151.961 64.1745 151.96 64.159C151.562 61.1238 149.394 59.5177 145.684 59.5177C142.053 59.5177 139.782 61.2978 139.782 64.1621C139.782 67.5795 142.957 68.2008 145.507 68.6668C147.75 69.0893 149.111 69.4342 149.111 70.6582C149.111 71.1335 149.111 72.5719 146.166 72.5719C143.991 72.5719 143.037 71.7952 142.82 69.8784C142.795 69.7388 142.724 69.6119 142.617 69.5186C142.51 69.4254 142.375 69.3715 142.233 69.3658H140.058C139.982 69.3662 139.907 69.3817 139.837 69.4114C139.768 69.4411 139.704 69.4844 139.652 69.5387C139.599 69.5931 139.557 69.6574 139.529 69.728C139.501 69.7986 139.488 69.874 139.49 69.9499C139.636 73.3268 142.043 75.2654 146.101 75.2654C149.993 75.2654 152.314 73.4014 152.314 70.2947C152.333 66.7904 149.074 66.1939 146.455 65.7155Z" fill="white"/>
<path d="M163.073 59.8066H160.923C160.847 59.807 160.773 59.8222 160.703 59.8515C160.633 59.8808 160.57 59.9235 160.517 59.9771C160.464 60.0308 160.422 60.0944 160.394 60.1642C160.365 60.2341 160.351 60.3089 160.351 60.3844L160.475 67.3216L160.351 74.4048C160.352 74.5559 160.413 74.7005 160.52 74.807C160.627 74.9136 160.772 74.9734 160.923 74.9734H163.073C163.148 74.9734 163.222 74.9585 163.292 74.9296C163.362 74.9006 163.425 74.8582 163.478 74.8048C163.531 74.7514 163.573 74.6881 163.602 74.6183C163.63 74.5486 163.645 74.474 163.644 74.3986L163.52 67.334L163.644 60.3782C163.644 60.2266 163.584 60.0812 163.477 59.974C163.37 59.8668 163.224 59.8066 163.073 59.8066Z" fill="white"/>
<path d="M180.715 72.3016H174.971L174.872 67.1073L174.977 60.3782C174.977 60.2269 174.916 60.0819 174.809 59.9749C174.702 59.8679 174.557 59.8074 174.406 59.8066H172.231C172.156 59.807 172.081 59.8222 172.011 59.8515C171.942 59.8808 171.879 59.9235 171.826 59.9771C171.772 60.0308 171.73 60.0944 171.702 60.1642C171.673 60.2341 171.659 60.3089 171.659 60.3844L171.784 67.2409L171.659 74.4048C171.66 74.5559 171.721 74.7005 171.828 74.807C171.935 74.9136 172.08 74.9734 172.231 74.9734H180.712C180.863 74.9734 181.008 74.9136 181.115 74.807C181.222 74.7005 181.283 74.5559 181.284 74.4048V72.8733C181.283 72.7224 181.223 72.578 181.117 72.471C181.01 72.3641 180.866 72.3033 180.715 72.3016Z" fill="white"/>
<path d="M181.284 52.1486H78.9282V55.5722H181.284V52.1486Z" fill="url(#paint0_linear_4647_3063)"/>
<path d="M57.4549 9.85746C54.3396 6.68703 50.6272 4.16504 46.532 2.43709C42.4368 0.709131 38.0399 -0.190565 33.5951 -0.210064C29.1503 -0.229564 24.7456 0.63152 20.6354 2.32348C16.5252 4.01543 12.7908 6.50475 9.64779 9.64773C6.50481 12.7907 4.01549 16.5251 2.32354 20.6353C0.631581 24.7455 -0.229502 29.1502 -0.210003 33.595C-0.190504 38.0398 0.709202 42.4367 2.43716 46.5319C4.16511 50.6272 6.68709 54.3396 9.85753 57.4548L31.5111 79.1115C32.079 79.6787 32.8489 79.9973 33.6515 79.9973C34.4542 79.9973 35.2241 79.6787 35.792 79.1115L57.4518 57.4548C60.5779 54.3301 63.0577 50.6201 64.7498 46.5368C66.4418 42.4534 67.3128 38.0768 67.3131 33.6568C67.3134 29.2368 66.4429 24.86 64.7514 20.7765C63.0599 16.6929 60.5806 12.9826 57.4549 9.85746ZM33.6578 10.2147C38.3226 10.2147 42.8827 11.598 46.7614 14.1897C50.64 16.7813 53.6631 20.4649 55.4483 24.7747C57.2334 29.0844 57.7005 33.8268 56.7905 38.402C55.8804 42.9772 53.634 47.1798 50.3355 50.4783C47.0369 53.7769 42.8344 56.0232 38.2591 56.9333C33.6839 57.8434 28.9416 57.3763 24.6318 55.5911C20.3221 53.806 16.6385 50.7829 14.0468 46.9042C11.4552 43.0255 10.0719 38.4655 10.0719 33.8006C10.0719 30.7033 10.682 27.6363 11.8673 24.7747C13.0526 21.9131 14.7899 19.313 16.98 17.1229C21.4032 12.6997 27.4024 10.2147 33.6578 10.2147Z" fill="url(#paint1_linear_4647_3063)"/>
<g style="mix-blend-mode:multiply" opacity="0.5">
<path d="M41.0175 7.85366C38.7166 8.86546 36.2304 9.38795 33.7168 9.38795C31.2032 9.38795 28.7171 8.86546 26.4161 7.85366C6.96524 -0.239233 -1.02513 25.8258 3.11607 41.5145C5.85616 51.9094 11.3363 58.0948 20.5942 64.1528C26.1862 67.8094 31.5639 70.4376 33.7199 70.6334C35.876 70.4376 41.2598 67.8094 46.8456 64.1528C56.1035 58.0948 61.5837 51.9094 64.3238 41.5145C68.4588 25.8258 60.4715 -0.239233 41.0175 7.85366ZM33.6578 57.3803C28.993 57.3803 24.4329 55.997 20.5542 53.4053C16.6755 50.8137 13.6524 47.1301 11.8673 42.8203C10.0821 38.5106 9.61504 33.7682 10.5251 29.193C11.4352 24.6178 13.6815 20.4152 16.9801 17.1167C20.2786 13.8181 24.4812 11.5718 29.0564 10.6617C33.6316 9.75165 38.374 10.2187 42.6837 12.0039C46.9935 13.789 50.6771 16.8121 53.2687 20.6908C55.8604 24.5695 57.2437 29.1295 57.2437 33.7944C57.2437 36.8917 56.6336 39.9588 55.4483 42.8203C54.263 45.6819 52.5257 48.282 50.3355 50.4721C48.1454 52.6623 45.5453 54.3996 42.6837 55.5849C39.8222 56.7702 36.7551 57.3803 33.6578 57.3803Z" fill="url(#paint2_linear_4647_3063)"/>
</g>
<path d="M34.1393 44.5497C32.9607 46.525 32.1757 48.7099 31.8279 50.9836C29.3022 50.7133 27.1058 49.7813 26.7081 47.47C26.3974 45.606 26.1365 43.5835 25.9625 41.4865C23.8655 41.3125 21.8462 41.0671 19.9822 40.7409C17.1178 40.2438 16.3784 37.0129 16.3784 33.7944C16.3784 30.5759 17.1178 27.3449 19.9822 26.8447C21.1627 26.6428 22.4054 26.4719 23.7102 26.329C23.3068 30.0796 24.0998 33.8616 25.9758 37.1342C27.8517 40.4069 30.7146 43.0024 34.1548 44.5497H34.1393Z" fill="url(#paint3_linear_4647_3063)"/>
<path d="M47.1129 35.9815C44.4439 36.339 41.8903 37.2955 39.6432 38.7792C37.396 40.263 35.5134 42.2357 34.1363 44.5497C30.6961 43.0024 27.8332 40.4069 25.9573 37.1343C24.0813 33.8616 23.2883 30.0796 23.6917 26.329C24.431 26.2421 25.1922 26.1675 25.9595 26.1054C26.062 24.8969 26.1863 23.7101 26.3354 22.5638C27.4623 22.3533 28.6065 22.2493 29.7528 22.2531C33.7688 22.2555 37.6666 23.6118 40.8167 26.1029C43.9667 28.5939 46.1849 32.0742 47.1129 35.9815Z" fill="url(#paint4_linear_4647_3063)"/>
<path d="M50.9372 33.7944C50.9417 34.4891 50.9002 35.1835 50.8129 35.8727C50.3749 35.8386 49.9306 35.823 49.4833 35.823C48.6915 35.8239 47.9007 35.8769 47.116 35.9815C46.1892 32.0699 43.9694 28.5855 40.8161 26.0924C37.6627 23.5992 33.7602 22.2432 29.7403 22.2438C28.594 22.2399 27.4499 22.3439 26.323 22.5544C26.4348 21.7156 26.556 20.8955 26.6927 20.1126C27.1898 17.2482 30.4207 16.5026 33.6423 16.5026C36.8639 16.5026 40.0887 17.2482 40.5857 20.1126C40.9119 21.9766 41.1574 23.9928 41.3313 26.096C43.4284 26.27 45.4539 26.5154 47.3179 26.8354C50.1885 27.3449 50.9372 30.5821 50.9372 33.7944Z" fill="url(#paint5_linear_4647_3063)"/>
<g style="mix-blend-mode:multiply" opacity="0.5">
<path d="M50.9372 33.7944C50.9417 34.4891 50.9002 35.1835 50.8129 35.8727C50.3749 35.8386 49.9306 35.823 49.4833 35.823C48.6915 35.8239 47.9007 35.8769 47.116 35.9815C46.1892 32.0699 43.9694 28.5855 40.8161 26.0924C37.6627 23.5992 33.7602 22.2432 29.7403 22.2438C28.594 22.2399 27.4499 22.3439 26.323 22.5544C26.4348 21.7156 26.556 20.8955 26.6927 20.1126C27.1898 17.2482 30.4207 16.5026 33.6423 16.5026C36.8639 16.5026 40.0887 17.2482 40.5857 20.1126C40.9119 21.9766 41.1574 23.9928 41.3313 26.096C43.4284 26.27 45.4539 26.5154 47.3179 26.8354C50.1885 27.3449 50.9372 30.5821 50.9372 33.7944Z" fill="url(#paint6_linear_4647_3063)"/>
</g>
<path d="M50.8128 35.8728C50.5208 38.1997 49.6385 40.1942 47.585 40.6881C47.585 40.4924 47.585 40.2905 47.585 40.0978C47.5885 38.712 47.43 37.3305 47.1128 35.9815C47.8976 35.8769 48.6884 35.824 49.4801 35.8231C49.9305 35.8231 50.3748 35.8386 50.8128 35.8728Z" fill="url(#paint7_linear_4647_3063)"/>
<path d="M47.5944 40.0979C47.5944 40.2905 47.5944 40.4924 47.5944 40.6881L47.3428 40.7409C45.4788 41.0671 43.4532 41.3126 41.3562 41.4865C41.2257 43.0772 41.0456 44.6274 40.8343 46.0968C38.5275 46.0147 36.2584 45.4872 34.1519 44.5435C35.5281 42.2325 37.4085 40.2622 39.6528 38.7796C41.8971 37.2971 44.4472 36.3406 47.1129 35.9815C47.4332 37.3302 47.5948 38.7117 47.5944 40.0979Z" fill="url(#paint8_linear_4647_3063)"/>
<path d="M40.8217 46.0968C40.7534 46.5628 40.6788 47.0288 40.6011 47.47C40.1041 50.3281 36.8731 51.0737 33.6577 51.0737C33.0466 51.0751 32.4359 51.045 31.8279 50.9836C32.1757 48.7099 32.9606 46.525 34.1392 44.5497C36.2462 45.4913 38.5153 46.0166 40.8217 46.0968Z" fill="url(#paint9_linear_4647_3063)"/>
<g style="mix-blend-mode:multiply" opacity="0.5">
<path d="M50.8128 35.8728C50.5208 38.1997 49.6385 40.1942 47.585 40.6881C47.585 40.4924 47.585 40.2905 47.585 40.0978C47.5885 38.712 47.43 37.3305 47.1128 35.9815C47.8976 35.8769 48.6884 35.824 49.4801 35.8231C49.9305 35.8231 50.3748 35.8386 50.8128 35.8728Z" fill="url(#paint10_linear_4647_3063)"/>
<path d="M47.5942 40.0979C47.5942 40.2905 47.5942 40.4924 47.5942 40.6881L47.3425 40.7409C45.4785 41.0671 43.453 41.3126 41.356 41.4865C41.2255 43.0772 41.0453 44.6274 40.8341 46.0968C38.5273 46.0147 36.2581 45.4872 34.1516 44.5435C35.5279 42.2325 37.4083 40.2622 39.6526 38.7796C41.8968 37.2971 44.447 36.3406 47.1127 35.9815C47.433 37.3302 47.5946 38.7117 47.5942 40.0979Z" fill="url(#paint11_linear_4647_3063)"/>
<path d="M40.8217 46.0968C40.7534 46.5628 40.6788 47.0288 40.6011 47.47C40.1041 50.3281 36.8731 51.0737 33.6577 51.0737C33.0466 51.0751 32.4359 51.045 31.8279 50.9836C32.1757 48.7099 32.9606 46.525 34.1392 44.5497C36.2462 45.4913 38.5153 46.0166 40.8217 46.0968Z" fill="url(#paint12_linear_4647_3063)"/>
</g>
<path d="M42.4527 32.94C42.4529 31.9078 42.119 30.9031 41.5009 30.0763C40.8828 29.2495 40.0138 28.645 39.0236 28.353C38.0335 28.0611 36.9755 28.0974 36.0077 28.4567C35.0399 28.8159 34.2144 29.4787 33.6546 30.346C33.0947 29.4787 32.2692 28.8159 31.3014 28.4567C30.3336 28.0974 29.2756 28.0611 28.2855 28.353C27.2953 28.645 26.4263 29.2495 25.8082 30.0763C25.1901 30.9031 24.8562 31.9078 24.8564 32.94C24.8564 33.0115 24.8564 33.0829 24.8564 33.1513C24.8564 33.2227 24.8564 33.2942 24.872 33.3657C24.872 33.5117 24.9061 33.6577 24.931 33.8006C24.9293 33.8109 24.9293 33.8214 24.931 33.8317C24.931 33.8938 24.9559 33.9559 24.9714 34.0181C24.9714 34.0522 24.9869 34.0895 24.9994 34.1268C25.3144 35.2418 25.857 36.2795 26.5931 37.1744C28.5285 39.6598 31.5638 41.6356 32.9835 42.1451H33.0208L33.6421 42.2476H33.6701L34.2697 42.1482L34.3132 42.1327C35.7329 41.6356 38.765 39.6474 40.7005 37.162C41.3842 36.325 41.9048 35.3671 42.2352 34.338C42.2569 34.2666 42.2756 34.1951 42.2942 34.1237C42.3129 34.0522 42.316 34.0429 42.3253 34.0025C42.3346 33.9621 42.3563 33.8596 42.3688 33.7882C42.3936 33.6421 42.4154 33.4961 42.4309 33.3501C42.4309 33.2787 42.4309 33.2072 42.4309 33.1358C42.4527 33.0798 42.4527 33.0084 42.4527 32.94Z" fill="url(#paint13_linear_4647_3063)"/>
<g style="mix-blend-mode:multiply" opacity="0.5">
<path d="M42.4527 32.94C42.4529 31.9078 42.119 30.9031 41.5009 30.0763C40.8828 29.2495 40.0138 28.645 39.0236 28.353C38.0335 28.0611 36.9755 28.0974 36.0077 28.4567C35.0399 28.8159 34.2144 29.4787 33.6546 30.346C33.0947 29.4787 32.2692 28.8159 31.3014 28.4567C30.3336 28.0974 29.2756 28.0611 28.2855 28.353C27.2953 28.645 26.4263 29.2495 25.8082 30.0763C25.1901 30.9031 24.8562 31.9078 24.8564 32.94C24.8564 33.0115 24.8564 33.0829 24.8564 33.1513C24.8564 33.2227 24.8564 33.2942 24.872 33.3657C24.872 33.5117 24.9061 33.6577 24.931 33.8006C24.9293 33.8109 24.9293 33.8214 24.931 33.8317C24.931 33.8938 24.9559 33.9559 24.9714 34.0181C24.9714 34.0522 24.9869 34.0895 24.9994 34.1268C25.3144 35.2418 25.857 36.2795 26.5931 37.1744C28.5285 39.6598 31.5638 41.6356 32.9835 42.1451H33.0208L33.6421 42.2476H33.6701L34.2697 42.1482L34.3132 42.1327C35.7329 41.6356 38.765 39.6474 40.7005 37.162C41.3842 36.325 41.9048 35.3671 42.2352 34.338C42.2569 34.2666 42.2756 34.1951 42.2942 34.1237C42.3129 34.0522 42.316 34.0429 42.3253 34.0025C42.3346 33.9621 42.3563 33.8596 42.3688 33.7882C42.3936 33.6421 42.4154 33.4961 42.4309 33.3501C42.4309 33.2787 42.4309 33.2072 42.4309 33.1358C42.4527 33.0798 42.4527 33.0084 42.4527 32.94Z" fill="url(#paint14_linear_4647_3063)"/>
</g>
<defs>
<linearGradient id="paint0_linear_4647_3063" x1="78.9282" y1="53.8604" x2="181.287" y2="53.8604" gradientUnits="userSpaceOnUse">
<stop stop-color="#99C237"/>
<stop offset="0.03" stop-color="#91C037"/>
<stop offset="0.18" stop-color="#73B736"/>
<stop offset="0.3" stop-color="#61B236"/>
<stop offset="0.39" stop-color="#5AB036"/>
<stop offset="0.47" stop-color="#58AF3E"/>
<stop offset="0.58" stop-color="#52AC52"/>
<stop offset="0.71" stop-color="#48A774"/>
<stop offset="0.86" stop-color="#3AA1A3"/>
<stop offset="1" stop-color="#2B9AD6"/>
</linearGradient>
<linearGradient id="paint1_linear_4647_3063" x1="3.8947e-05" y1="39.9984" x2="67.3124" y2="39.9984" gradientUnits="userSpaceOnUse">
<stop stop-color="#99C237"/>
<stop offset="0.03" stop-color="#91C037"/>
<stop offset="0.18" stop-color="#73B736"/>
<stop offset="0.3" stop-color="#61B236"/>
<stop offset="0.39" stop-color="#5AB036"/>
<stop offset="0.47" stop-color="#58AF3E"/>
<stop offset="0.58" stop-color="#52AC52"/>
<stop offset="0.71" stop-color="#48A774"/>
<stop offset="0.86" stop-color="#3AA1A3"/>
<stop offset="1" stop-color="#2B9AD6"/>
</linearGradient>
<linearGradient id="paint2_linear_4647_3063" x1="2.0598" y1="38.4824" x2="65.3863" y2="38.4824" gradientUnits="userSpaceOnUse">
<stop stop-color="#99C237"/>
<stop offset="0.03" stop-color="#91C037"/>
<stop offset="0.18" stop-color="#73B736"/>
<stop offset="0.3" stop-color="#61B236"/>
<stop offset="0.39" stop-color="#5AB036"/>
<stop offset="0.47" stop-color="#58AF3E"/>
<stop offset="0.58" stop-color="#52AC52"/>
<stop offset="0.71" stop-color="#48A774"/>
<stop offset="0.86" stop-color="#3AA1A3"/>
<stop offset="1" stop-color="#2B9AD6"/>
</linearGradient>
<linearGradient id="paint3_linear_4647_3063" x1="16.3784" y1="38.6563" x2="34.1393" y2="38.6563" gradientUnits="userSpaceOnUse">
<stop stop-color="#99C237"/>
<stop offset="0.03" stop-color="#91C037"/>
<stop offset="0.18" stop-color="#73B736"/>
<stop offset="0.3" stop-color="#61B236"/>
<stop offset="0.39" stop-color="#5AB036"/>
<stop offset="0.47" stop-color="#58AF3E"/>
<stop offset="0.58" stop-color="#52AC52"/>
<stop offset="0.71" stop-color="#48A774"/>
<stop offset="0.86" stop-color="#3AA1A3"/>
<stop offset="1" stop-color="#2B9AD6"/>
</linearGradient>
<linearGradient id="paint4_linear_4647_3063" x1="23.5922" y1="33.3967" x2="47.116" y2="33.3967" gradientUnits="userSpaceOnUse">
<stop stop-color="#99C237"/>
<stop offset="0.03" stop-color="#91C037"/>
<stop offset="0.18" stop-color="#73B736"/>
<stop offset="0.3" stop-color="#61B236"/>
<stop offset="0.39" stop-color="#5AB036"/>
<stop offset="0.47" stop-color="#58AF3E"/>
<stop offset="0.58" stop-color="#52AC52"/>
<stop offset="0.71" stop-color="#48A774"/>
<stop offset="0.86" stop-color="#3AA1A3"/>
<stop offset="1" stop-color="#2B9AD6"/>
</linearGradient>
<linearGradient id="paint5_linear_4647_3063" x1="26.3385" y1="26.2452" x2="50.9372" y2="26.2452" gradientUnits="userSpaceOnUse">
<stop stop-color="#99C237"/>
<stop offset="0.03" stop-color="#91C037"/>
<stop offset="0.18" stop-color="#73B736"/>
<stop offset="0.3" stop-color="#61B236"/>
<stop offset="0.39" stop-color="#5AB036"/>
<stop offset="0.47" stop-color="#58AF3E"/>
<stop offset="0.58" stop-color="#52AC52"/>
<stop offset="0.71" stop-color="#48A774"/>
<stop offset="0.86" stop-color="#3AA1A3"/>
<stop offset="1" stop-color="#2B9AD6"/>
</linearGradient>
<linearGradient id="paint6_linear_4647_3063" x1="26.3385" y1="26.2452" x2="50.9372" y2="26.2452" gradientUnits="userSpaceOnUse">
<stop stop-color="#99C237"/>
<stop offset="0.03" stop-color="#91C037"/>
<stop offset="0.18" stop-color="#73B736"/>
<stop offset="0.3" stop-color="#61B236"/>
<stop offset="0.39" stop-color="#5AB036"/>
<stop offset="0.47" stop-color="#58AF3E"/>
<stop offset="0.58" stop-color="#52AC52"/>
<stop offset="0.71" stop-color="#48A774"/>
<stop offset="0.86" stop-color="#3AA1A3"/>
<stop offset="1" stop-color="#2B9AD6"/>
</linearGradient>
<linearGradient id="paint7_linear_4647_3063" x1="47.1159" y1="38.2556" x2="50.8128" y2="38.2556" gradientUnits="userSpaceOnUse">
<stop stop-color="#99C237"/>
<stop offset="0.03" stop-color="#91C037"/>
<stop offset="0.18" stop-color="#73B736"/>
<stop offset="0.3" stop-color="#61B236"/>
<stop offset="0.39" stop-color="#5AB036"/>
<stop offset="0.47" stop-color="#58AF3E"/>
<stop offset="0.58" stop-color="#52AC52"/>
<stop offset="0.71" stop-color="#48A774"/>
<stop offset="0.86" stop-color="#3AA1A3"/>
<stop offset="1" stop-color="#2B9AD6"/>
</linearGradient>
<linearGradient id="paint8_linear_4647_3063" x1="34.1394" y1="41.0392" x2="47.5944" y2="41.0392" gradientUnits="userSpaceOnUse">
<stop stop-color="#99C237"/>
<stop offset="0.03" stop-color="#91C037"/>
<stop offset="0.18" stop-color="#73B736"/>
<stop offset="0.3" stop-color="#61B236"/>
<stop offset="0.39" stop-color="#5AB036"/>
<stop offset="0.47" stop-color="#58AF3E"/>
<stop offset="0.58" stop-color="#52AC52"/>
<stop offset="0.71" stop-color="#48A774"/>
<stop offset="0.86" stop-color="#3AA1A3"/>
<stop offset="1" stop-color="#2B9AD6"/>
</linearGradient>
<linearGradient id="paint9_linear_4647_3063" x1="31.8279" y1="47.8117" x2="40.8217" y2="47.8117" gradientUnits="userSpaceOnUse">
<stop stop-color="#99C237"/>
<stop offset="0.03" stop-color="#91C037"/>
<stop offset="0.18" stop-color="#73B736"/>
<stop offset="0.3" stop-color="#61B236"/>
<stop offset="0.39" stop-color="#5AB036"/>
<stop offset="0.47" stop-color="#58AF3E"/>
<stop offset="0.58" stop-color="#52AC52"/>
<stop offset="0.71" stop-color="#48A774"/>
<stop offset="0.86" stop-color="#3AA1A3"/>
<stop offset="1" stop-color="#2B9AD6"/>
</linearGradient>
<linearGradient id="paint10_linear_4647_3063" x1="47.1159" y1="38.2556" x2="50.8128" y2="38.2556" gradientUnits="userSpaceOnUse">
<stop stop-color="#99C237"/>
<stop offset="0.03" stop-color="#91C037"/>
<stop offset="0.18" stop-color="#73B736"/>
<stop offset="0.3" stop-color="#61B236"/>
<stop offset="0.39" stop-color="#5AB036"/>
<stop offset="0.47" stop-color="#58AF3E"/>
<stop offset="0.58" stop-color="#52AC52"/>
<stop offset="0.71" stop-color="#48A774"/>
<stop offset="0.86" stop-color="#3AA1A3"/>
<stop offset="1" stop-color="#2B9AD6"/>
</linearGradient>
<linearGradient id="paint11_linear_4647_3063" x1="34.1392" y1="41.0392" x2="47.5942" y2="41.0392" gradientUnits="userSpaceOnUse">
<stop stop-color="#99C237"/>
<stop offset="0.03" stop-color="#91C037"/>
<stop offset="0.18" stop-color="#73B736"/>
<stop offset="0.3" stop-color="#61B236"/>
<stop offset="0.39" stop-color="#5AB036"/>
<stop offset="0.47" stop-color="#58AF3E"/>
<stop offset="0.58" stop-color="#52AC52"/>
<stop offset="0.71" stop-color="#48A774"/>
<stop offset="0.86" stop-color="#3AA1A3"/>
<stop offset="1" stop-color="#2B9AD6"/>
</linearGradient>
<linearGradient id="paint12_linear_4647_3063" x1="31.8279" y1="47.8117" x2="40.8217" y2="47.8117" gradientUnits="userSpaceOnUse">
<stop stop-color="#99C237"/>
<stop offset="0.03" stop-color="#91C037"/>
<stop offset="0.18" stop-color="#73B736"/>
<stop offset="0.3" stop-color="#61B236"/>
<stop offset="0.39" stop-color="#5AB036"/>
<stop offset="0.47" stop-color="#58AF3E"/>
<stop offset="0.58" stop-color="#52AC52"/>
<stop offset="0.71" stop-color="#48A774"/>
<stop offset="0.86" stop-color="#3AA1A3"/>
<stop offset="1" stop-color="#2B9AD6"/>
</linearGradient>
<linearGradient id="paint13_linear_4647_3063" x1="28.0998" y1="38.8303" x2="39.2124" y2="27.7146" gradientUnits="userSpaceOnUse">
<stop stop-color="#99C237"/>
<stop offset="0.03" stop-color="#91C037"/>
<stop offset="0.18" stop-color="#73B736"/>
<stop offset="0.3" stop-color="#61B236"/>
<stop offset="0.39" stop-color="#5AB036"/>
<stop offset="0.47" stop-color="#58AF3E"/>
<stop offset="0.58" stop-color="#52AC52"/>
<stop offset="0.71" stop-color="#48A774"/>
<stop offset="0.86" stop-color="#3AA1A3"/>
<stop offset="1" stop-color="#2B9AD6"/>
</linearGradient>
<linearGradient id="paint14_linear_4647_3063" x1="28.0998" y1="38.8303" x2="39.2124" y2="27.7146" gradientUnits="userSpaceOnUse">
<stop stop-color="#99C237"/>
<stop offset="0.03" stop-color="#91C037"/>
<stop offset="0.18" stop-color="#73B736"/>
<stop offset="0.3" stop-color="#61B236"/>
<stop offset="0.39" stop-color="#5AB036"/>
<stop offset="0.47" stop-color="#58AF3E"/>
<stop offset="0.58" stop-color="#52AC52"/>
<stop offset="0.71" stop-color="#48A774"/>
<stop offset="0.86" stop-color="#3AA1A3"/>
<stop offset="1" stop-color="#2B9AD6"/>
</linearGradient>
</defs>
</svg>
