<svg width="68" height="80" viewBox="0 0 68 80" fill="none" xmlns="http://www.w3.org/2000/svg">
<path d="M57.4543 9.85746C54.339 6.68703 50.6266 4.16504 46.5314 2.43709C42.4362 0.709131 38.0392 -0.190565 33.5944 -0.210064C29.1496 -0.229564 24.745 0.63152 20.6348 2.32348C16.5245 4.01543 12.7902 6.50475 9.64718 9.64773C6.5042 12.7907 4.01488 16.5251 2.32293 20.6353C0.63097 24.7455 -0.230113 29.1502 -0.210614 33.595C-0.191114 38.0398 0.708592 42.4367 2.43655 46.5319C4.1645 50.6272 6.68648 54.3396 9.85692 57.4548L31.5104 79.1115C32.0784 79.6787 32.8482 79.9973 33.6509 79.9973C34.4536 79.9973 35.2235 79.6787 35.7914 79.1115L57.4512 57.4548C60.5773 54.3301 63.0571 50.6201 64.7492 46.5368C66.4412 42.4534 67.3122 38.0768 67.3125 33.6568C67.3128 29.2368 66.4423 24.86 64.7508 20.7765C63.0593 16.6929 60.5799 12.9826 57.4543 9.85746ZM33.6572 10.2147C38.322 10.2147 42.8821 11.598 46.7608 14.1897C50.6394 16.7813 53.6625 20.4649 55.4477 24.7747C57.2328 29.0844 57.6999 33.8268 56.7898 38.402C55.8798 42.9772 53.6334 47.1798 50.3349 50.4783C47.0363 53.7769 42.8337 56.0232 38.2585 56.9333C33.6833 57.8434 28.941 57.3763 24.6312 55.5911C20.3215 53.806 16.6379 50.7829 14.0462 46.9042C11.4546 43.0255 10.0713 38.4655 10.0713 33.8006C10.0713 30.7033 10.6813 27.6363 11.8666 24.7747C13.0519 21.9131 14.7893 19.313 16.9794 17.1229C21.4026 12.6997 27.4018 10.2147 33.6572 10.2147Z" fill="url(#paint0_linear_8296_9503)"/>
<defs>
<linearGradient id="paint0_linear_8296_9503" x1="-0.000571405" y1="39.9984" x2="67.3118" y2="39.9984" gradientUnits="userSpaceOnUse">
<stop stop-color="#99C237"/>
<stop offset="0.03" stop-color="#91C037"/>
<stop offset="0.18" stop-color="#73B736"/>
<stop offset="0.3" stop-color="#61B236"/>
<stop offset="0.39" stop-color="#5AB036"/>
<stop offset="0.47" stop-color="#58AF3E"/>
<stop offset="0.58" stop-color="#52AC52"/>
<stop offset="0.71" stop-color="#48A774"/>
<stop offset="0.86" stop-color="#3AA1A3"/>
<stop offset="1" stop-color="#2B9AD6"/>
</linearGradient>
</defs>
</svg>
