<svg width="274" height="227" viewBox="0 0 274 227" fill="none" xmlns="http://www.w3.org/2000/svg">
<g clip-path="url(#clip0_4407_25077)">
<path d="M235.959 167.691C234.513 169.917 233.202 172.227 231.777 174.466C230.354 176.716 228.718 178.824 226.89 180.761C223.367 184.483 220.438 188.741 218.414 193.453C216.536 197.82 215.203 202.659 215.005 207.427C214.903 209.941 214.976 212.48 215.113 214.991C215.194 216.496 215.29 218.021 215.585 219.502C215.687 220 215.851 221.215 216.543 221.267V220.954L174.383 220.558C170.854 220.525 167.319 220.545 163.791 220.436C160.355 220.328 156.927 220.056 153.499 219.82C150.091 219.585 146.685 219.396 143.265 219.414C139.752 219.438 136.242 219.623 132.73 219.719C130.722 219.771 128.707 219.504 126.701 219.426C125.582 219.383 124.463 219.357 123.353 219.463C122.674 219.528 121.879 219.606 121.319 220.032L121.509 220.278C129.062 214.043 135.02 206.108 138.894 197.125C140.949 192.341 142.644 187.15 142.594 181.892C142.556 177.746 141.291 173.552 138.789 170.212C136.573 167.254 133.341 165.064 129.577 164.808C125.27 164.514 120.843 166.703 117.441 169.156C113.696 171.857 110.73 175.372 107.641 178.754C104.317 182.387 100.459 185.906 95.6415 187.374C92.0487 188.471 86.8776 187.982 84.7908 184.385C83.8644 182.788 83.9773 180.734 84.9942 179.213C85.9766 177.737 87.6281 176.825 89.2165 176.134C92.9232 174.521 96.9686 173.903 100.476 171.815C104.253 169.567 107.289 166.271 109.795 162.707C115.31 154.877 118.21 145.533 123.946 137.843C126.711 134.137 130.141 130.879 134.468 129.095C138.18 127.563 142.429 126.965 146.366 127.932C148.284 128.403 150.107 129.263 151.624 130.534C153.414 132.033 154.611 134.032 155.543 136.146C157.272 140.07 158.379 144.268 161.727 147.199C166.961 151.777 175.229 152.645 181.354 149.375C182.867 148.566 184.224 147.495 185.36 146.212C185.493 146.061 185.272 145.839 185.138 145.99C180.1 151.678 171.047 152.421 164.582 148.819C162.977 147.935 161.55 146.763 160.374 145.36C158.854 143.526 157.934 141.303 157.078 139.11C155.533 135.161 153.883 131.246 150.024 129.043C143.295 125.2 134.23 127.53 128.628 132.32C121.234 138.643 117.837 148.047 113.324 156.364C111.099 160.465 108.524 164.458 105.181 167.748C103.554 169.353 101.739 170.775 99.7356 171.886C97.8747 172.918 95.8794 173.562 93.8557 174.189C90.7551 175.15 86.8023 176.125 84.8173 178.93C84.38 179.554 84.0808 180.263 83.9395 181.011C83.7982 181.759 83.818 182.528 83.9976 183.267C84.383 184.809 85.523 186.024 86.8572 186.829C90.3026 188.902 94.3988 188.452 97.9224 186.849C102.314 184.855 105.777 181.339 108.931 177.788C112.02 174.31 115.223 170.821 119.214 168.348C122.977 166.015 127.719 164.203 132.139 165.61C136.105 166.876 138.994 170.288 140.614 173.995C142.702 178.771 142.602 184.012 141.361 189.004C138.932 198.765 133.507 207.923 126.568 215.168C124.905 216.902 123.142 218.537 121.286 220.065C121.15 220.177 121.334 220.418 121.477 220.311C122.029 219.891 122.836 219.827 123.503 219.771C124.506 219.701 125.512 219.691 126.516 219.74C128.362 219.805 130.206 220.019 132.054 220.044C135.184 220.094 138.33 219.822 141.46 219.759C144.884 219.691 148.299 219.8 151.717 220.018C155.135 220.236 158.565 220.525 161.994 220.681C165.423 220.837 168.839 220.822 172.26 220.855L193.037 221.049L216.543 221.27C216.747 221.27 216.747 220.966 216.543 220.957C216.018 220.917 215.854 219.263 215.798 218.919C215.578 217.571 215.493 216.2 215.418 214.838C215.292 212.404 215.23 209.956 215.316 207.523C215.478 202.959 216.74 198.287 218.484 194.089C220.444 189.38 223.284 185.111 226.75 181.371C228.6 179.375 230.281 177.36 231.763 175.072C233.301 172.696 234.688 170.226 236.23 167.852C236.34 167.683 236.069 167.525 235.959 167.694V167.691Z" fill="#B4E08E"/>
<path d="M158.401 21.9971C153.02 17.0614 144.395 17.1588 139.283 22.421C136.856 24.9188 135.389 28.2826 135.327 31.7681C135.258 35.7231 136.759 39.4845 137.888 43.2103C139.032 46.9899 139.791 50.9551 138.285 54.7519C136.969 58.0691 134.369 60.6774 131.879 63.1539C129.368 65.6547 126.772 68.1524 125.037 71.2789C123.105 74.7634 122.232 78.7519 122.121 82.7131C121.869 91.688 125.522 100.186 128.851 108.337C131.902 115.815 135.399 123.391 141.827 128.599C148.314 133.856 156.53 136.648 164.216 139.652C172.971 143.076 181.88 146.292 191.137 148.075C195.598 148.934 200.134 149.452 204.681 149.459C209.298 149.467 213.795 148.812 218.308 147.922C222.955 147.009 227.644 146.102 232.395 146.691C236.862 147.246 241.243 148.786 245.781 148.627C249.261 148.515 252.582 147.146 255.125 144.774C257.613 142.479 259.396 139.5 260.82 136.466C262.422 133.048 263.609 129.45 264.811 125.879C266.309 121.428 267.704 116.924 268.568 112.303C270.195 103.598 269.472 94.7262 265.654 86.664C263.84 82.8317 261.137 79.5328 259.229 75.7593C258.227 73.8039 257.597 71.6798 257.373 69.4951C257.17 67.4314 257.204 65.3525 257.001 63.2887C256.656 59.8002 255.379 56.8187 252.569 54.6363C249.995 52.6385 246.902 51.4794 244.084 49.8872C242.647 49.076 241.261 48.148 240.118 46.9524C238.913 45.6939 238.074 44.1636 237.465 42.543C236.286 39.4064 235.887 36.0395 234.719 32.8998C233.6 29.8981 231.699 27.4926 228.69 26.229C225.351 24.8275 221.628 24.792 218.248 23.5234C210.886 20.7609 210.824 11.9686 206.451 6.51872C202.339 1.38629 195.354 -0.448235 189.007 0.0922866C181.363 0.742333 174.724 4.97321 169.114 9.94236C166.063 12.647 163.248 15.6041 160.448 18.5623C160.235 18.7885 160.578 19.1322 160.792 18.9051C166.307 13.0729 172.011 7.05924 179.287 3.41148C185.426 0.334657 192.801 -0.601368 199.303 1.9542C202.444 3.18837 205.208 5.30077 207.032 8.15042C208.882 11.0498 209.814 14.4014 211.344 17.461C212.81 20.4019 214.888 22.7465 218.009 23.9513C221.311 25.221 224.946 25.2697 228.239 26.5677C235.278 29.3373 234.781 37.4431 237.272 43.3726C238.468 46.2121 240.484 48.292 243.107 49.8801C245.804 51.5129 248.794 52.6264 251.412 54.396C252.754 55.3036 253.981 56.4049 254.85 57.7821C255.945 59.5173 256.361 61.5343 256.54 63.5565C256.716 65.533 256.69 67.5217 256.889 69.4971C257.068 71.3661 257.542 73.195 258.296 74.9156C259.931 78.6323 262.567 81.7953 264.465 85.3731C266.49 89.2084 267.859 93.3534 268.517 97.6377C269.931 106.82 267.601 115.914 264.733 124.586C263.532 128.217 262.344 131.882 260.786 135.381C259.401 138.494 257.691 141.567 255.254 143.987C252.615 146.608 249.238 148.086 245.5 148.155C241.058 148.237 236.775 146.752 232.401 146.212C228.028 145.671 223.681 146.382 219.385 147.221C214.802 148.117 210.265 148.911 205.581 148.974C196.474 149.095 187.479 147.128 178.841 144.404C174.528 143.043 170.28 141.487 166.063 139.858C161.949 138.27 157.826 136.681 153.781 134.921C150.154 133.341 146.589 131.55 143.391 129.203C140.014 126.724 137.257 123.595 135.053 120.049C132.917 116.625 131.27 112.931 129.731 109.211C128.042 105.125 126.337 101.023 124.976 96.8143C122.401 88.8586 121.178 79.7133 125.205 71.9959C128.42 65.8352 135.04 62.3182 138.185 56.1362C139.756 53.0462 139.907 49.6936 139.209 46.3419C138.408 42.5045 136.762 38.8912 136.086 35.0244C135.425 31.2458 136.052 27.5088 138.302 24.3488C140.533 21.2142 144.05 19.1333 147.911 18.8595C151.602 18.5978 155.326 19.8401 158.055 22.3429C158.284 22.5529 158.629 22.2111 158.398 22.0002L158.401 21.9971Z" fill="#BF7E00"/>
<path d="M178.642 2.60831C181.955 1.45313 185.448 0.900124 188.957 0.975581C197.539 1.19159 205.812 5.40218 211.412 11.8266C213.898 14.6793 214.983 19.5146 217.568 21.9474C220.937 25.1165 225.233 24.6977 227.844 29.5269C230.058 33.6209 230.804 38.3832 233.061 42.4538C236.979 49.5131 244.703 53.387 251.127 58.2912C263.912 68.05 272.347 83.2779 273.826 99.2614C274.365 105.095 273.813 111.526 269.854 115.854C266.488 119.533 260.905 121.447 259.298 126.164C258.676 127.995 258.782 129.98 258.586 131.905C257.671 141.043 249.856 148.311 241.189 151.415C231.374 154.931 221.844 153.68 211.832 153.275C201.82 152.87 192.066 156.067 182.198 155.896C172.675 155.73 162.695 153.708 153.185 152.715C149.988 152.382 146.223 151.99 143.493 150.127C140.535 148.11 140.727 145.564 138.899 143.041C135.488 138.339 126.797 136.949 127.683 129.36C128.124 125.593 131.401 122.854 133.054 119.438C137.549 110.154 127.647 103.197 125.936 94.6624C123.698 83.5071 131.944 73.5455 132.39 62.3831C132.632 56.3431 132.187 50.2736 132.806 44.261C133.442 38.0647 135.348 31.4071 139.991 26.9693C144.396 22.7557 149.334 22.8997 154.704 21.1889C159.707 19.5937 161.076 16.3921 164.339 12.5071C168.127 8.00237 173.06 4.53106 178.642 2.60831Z" fill="#EC9C00"/>
<g opacity="0.2">
<path d="M203.87 162.558C203.812 162.558 203.755 162.545 203.704 162.519C203.652 162.493 203.608 162.453 203.576 162.405C203.545 162.356 203.527 162.3 203.525 162.242C203.438 160.598 203.53 158.949 203.799 157.325C205.351 147.996 211.552 140.962 217.548 134.161C220.643 130.652 223.841 127.024 226.339 123.14C228.95 119.083 231.945 112.796 231.391 105.864C231.156 102.923 230.17 100.084 228.467 97.4207C227.675 96.1825 226.775 94.9869 225.904 93.8358C225.074 92.7355 224.216 91.5977 223.451 90.4213C221.713 87.7481 220.799 85.1611 220.656 82.5113C220.498 79.5896 221.143 76.6842 221.767 73.873L221.863 73.442C222.588 70.1675 223.168 67.2093 222.923 64.1761C222.673 61.3029 221.846 58.5092 220.49 55.9618C219.14 53.4067 217.304 51.1382 215.085 49.2828C213.095 47.6339 210.687 46.3602 207.504 45.2761L206.885 45.0662C204.468 44.2549 201.97 43.4101 200.15 41.5878C198.281 39.7157 197.918 37.2017 197.567 34.7709C197.515 34.4028 197.46 34.0225 197.401 33.6554C196.446 27.6599 192.152 22.6117 186.464 20.7934C180.814 18.9872 174.214 20.698 170.036 25.0526C170.002 25.0915 169.958 25.1204 169.909 25.1359C169.859 25.1515 169.807 25.1532 169.756 25.1409C169.698 25.1253 169.645 25.0949 169.602 25.0526C169.559 25.0103 169.528 24.9575 169.511 24.8995C169.495 24.8446 169.494 24.7863 169.508 24.7308C169.522 24.6752 169.551 24.6246 169.592 24.5841C170.549 23.5843 171.629 22.7096 172.807 21.9809C175.231 20.493 177.99 19.6323 180.832 19.4771C183.673 19.3082 186.508 19.8922 189.05 21.1696C191.56 22.4628 193.71 24.3561 195.308 26.6803C196.861 28.9255 197.762 31.4608 198.23 34.9017L198.238 34.9565C198.449 36.505 198.667 38.1063 199.402 39.5048C200.066 40.7673 201.184 41.8372 202.724 42.6891C204.177 43.4923 205.775 44.0297 207.328 44.55C208.567 44.9668 209.848 45.3968 211.051 45.9616C216.003 48.285 220.041 52.669 222.128 57.99C223.149 60.5505 223.659 63.2848 223.63 66.04C223.592 68.6635 223.012 71.2647 222.452 73.7808C222.337 74.298 222.222 74.8141 222.111 75.3293C221.467 78.3422 220.85 81.8328 221.704 85.1459C222.496 88.2349 224.528 90.9365 226.161 93.1067L226.431 93.4657C228.09 95.6663 229.804 97.941 230.832 100.555C231.838 103.11 232.256 105.922 232.061 108.915C231.71 114.433 229.417 120.148 225.238 125.9C223.059 128.9 220.56 131.72 218.152 134.447C215.928 136.962 213.628 139.562 211.584 142.294C206.266 149.403 203.843 155.931 204.176 162.252C204.181 162.303 204.172 162.354 204.15 162.4C204.128 162.446 204.094 162.485 204.051 162.513C203.997 162.545 203.934 162.561 203.87 162.558ZM181.827 19.9192C183.417 19.9153 184.998 20.1579 186.513 20.6382C189.379 21.5689 191.924 23.2874 193.854 25.5962C195.799 27.8879 197.08 30.6651 197.56 33.629C197.62 34.0012 197.675 34.3825 197.728 34.7516C198.075 37.1561 198.434 39.6427 200.265 41.4772C202.058 43.2722 204.536 44.1078 206.936 44.9161L207.557 45.126C210.758 46.2172 213.183 47.5 215.184 49.1612C217.42 51.0298 219.269 53.3149 220.629 55.8888C221.995 58.4559 222.828 61.2709 223.079 64.166C223.326 67.2225 222.745 70.1918 222.018 73.4796L221.922 73.9106C221.3 76.7115 220.657 79.6068 220.813 82.5052C220.956 85.1236 221.861 87.6842 223.583 90.3331C224.344 91.5054 225.202 92.6402 226.029 93.7385C226.902 94.8946 227.804 96.0912 228.599 97.3335C230.319 100.022 231.31 102.888 231.548 105.852C232.106 112.824 229.096 119.148 226.473 123.227C223.968 127.121 220.765 130.755 217.667 134.268C211.685 141.052 205.5 148.067 203.956 157.352C203.688 158.964 203.597 160.601 203.683 162.233C203.684 162.263 203.692 162.292 203.709 162.317C203.725 162.342 203.748 162.362 203.775 162.375C203.802 162.39 203.834 162.398 203.865 162.398C203.897 162.398 203.928 162.39 203.956 162.375C203.974 162.362 203.989 162.344 203.998 162.324C204.007 162.303 204.011 162.28 204.008 162.258C203.672 155.899 206.106 149.336 211.446 142.196C213.496 139.458 215.797 136.856 218.024 134.338C220.433 131.614 222.926 128.797 225.1 125.803C229.257 120.077 231.543 114.391 231.892 108.903C232.081 105.934 231.671 103.144 230.672 100.612C229.655 98.0191 227.943 95.7525 226.292 93.56L226.021 93.201C224.38 91.0197 222.337 88.3039 221.536 85.1834C220.679 81.8369 221.299 78.324 221.943 75.2938C222.053 74.7776 222.168 74.2614 222.284 73.7442C222.842 71.2353 223.421 68.6423 223.457 66.037C223.486 63.3026 222.98 60.5888 221.967 58.0478C219.895 52.7643 215.887 48.4137 210.972 46.1066C209.777 45.5458 208.5 45.1169 207.266 44.7021C205.71 44.1798 204.102 43.6393 202.635 42.829C201.067 41.963 199.928 40.8698 199.248 39.5839C198.5 38.1641 198.28 36.5415 198.068 34.9828L198.06 34.9271C197.595 31.5125 196.702 28.9986 195.164 26.7766C193.581 24.4735 191.45 22.5979 188.961 21.3177C183.972 18.7743 177.809 19.0866 172.878 22.1219C171.712 22.8433 170.642 23.7095 169.694 24.6997C169.673 24.7197 169.658 24.7452 169.651 24.7734C169.643 24.8015 169.644 24.8312 169.653 24.859C169.662 24.8895 169.678 24.9173 169.7 24.9399C169.723 24.9626 169.75 24.9793 169.781 24.9888C169.803 24.9936 169.827 24.9921 169.849 24.9844C169.871 24.9767 169.89 24.9631 169.905 24.9452C173.018 21.7091 177.437 19.9192 181.827 19.9192Z" fill="#FFF2D9"/>
</g>
<path d="M206.361 128.851C206.806 125.115 207.045 122.896 209.185 120.434C210.882 118.484 212.541 117.416 212.273 114.285C212.006 111.188 210.21 108.521 208.762 105.815C207.314 103.108 206.158 99.8313 207.251 96.9472C207.951 95.0964 209.454 93.7497 210.688 92.2437C211.921 90.7377 212.962 88.7389 212.442 86.8233C211.617 83.7809 207.543 82.9615 206.41 80.0368C205.504 77.7044 206.845 75.1011 206.844 72.578C206.844 69.0367 204.098 66.0228 200.965 64.7551C197.101 63.1894 193.464 64.0625 189.559 64.0453C185.112 64.026 180.669 62.4987 176.215 62.4987C171.6 62.016 171.195 61.3832 169.185 56.9374C167.557 53.2949 166.186 49.5434 165.084 45.7101C164.575 43.9527 161.728 36.7636 162.565 35.21C156.282 46.7993 152.502 59.5487 151.831 72.9786C151.579 78.0208 151.775 83.1958 153.479 87.9114C154.3 90.181 155.471 92.3654 155.694 94.784C156.251 100.856 148.558 102.903 148.09 108.635C147.676 113.686 153.581 116.859 154.69 121.792C155.396 124.916 154.047 128.115 153.842 131.325C153.427 137.838 158.143 143.969 164.012 145.994C169.88 148.019 176.492 146.437 181.724 142.965C184.704 140.987 187.745 138.3 191.239 138.732C193.332 138.99 195.198 140.371 197.296 140.569C199.94 140.819 202.482 139.082 203.989 136.77C205.569 134.349 206.032 131.609 206.361 128.851Z" fill="#CF8900"/>
<path d="M183.323 83.1015C185.883 82.4413 190.829 83.6957 192.953 85.58C195.54 87.8759 195.557 92.9982 196.326 96.2008C197.579 101.417 198.83 106.634 200.081 111.852C200.766 114.705 201.403 117.936 199.902 120.423C198.249 123.161 194.768 123.757 191.708 124.089L180.363 125.318C176.618 125.724 172.69 126.105 169.209 124.588C165.728 123.071 162.938 118.983 164.05 115.18C165.179 111.326 169.43 109.682 171.94 106.641C174.807 103.166 175.161 98.2077 176.046 93.6929C176.931 89.178 179.086 84.1926 183.323 83.1015Z" fill="#FF917B"/>
<path d="M196.449 89.0269C199.874 85.9481 202.379 81.8632 203.93 77.4214C205.947 71.641 207.367 64.5574 202.266 59.9371C198.935 56.9201 194.146 56.0023 190.2 54.2337C185.672 52.2055 180.824 51.0778 176.289 49.0526C169.705 46.1117 165.696 41.7774 162.712 35.1471C160.685 41.4093 159.508 48.4736 158.99 55.0998C158.405 62.5779 159.355 70.2009 161.879 77.2206C163.985 83.0771 167.324 88.7146 172.421 91.9141C179.813 96.5567 189.895 94.9179 196.449 89.0269Z" fill="#FEA587"/>
<path d="M197.049 114.602C196.98 114.681 196.91 114.76 196.839 114.838C193.884 118.127 189.852 120.26 185.464 120.854C181.076 121.449 176.62 120.467 172.892 118.083C170.181 116.35 167.867 113.78 167.106 110.66C166.834 109.544 161.274 109.971 160.459 110.013C157.921 110.142 155.406 110.566 152.967 111.278C143.532 114.021 136.207 120.178 131.029 128.424C126.97 134.887 124.273 142.089 121.605 149.236C118.383 157.861 114.491 166.495 111.872 175.317C110.448 180.104 110.376 189.374 114.032 193.02C116.879 195.441 121.281 194.572 124.608 192.851C133.23 188.389 138.946 178.837 138.788 169.151C138.817 170.948 140.08 173.086 140.28 174.979C140.479 176.872 140.607 178.787 140.899 180.735C141.564 185.215 141.681 189.759 141.247 194.267C140.387 203.272 137.374 212.086 132.385 219.652C133.091 218.714 143.442 220.509 144.962 220.626L158.737 221.693C162.762 222.006 166.748 222.687 170.763 223.104C172.707 223.307 174.802 223.63 176.758 223.485C178.238 223.376 179.605 222.877 181.108 222.734C189.149 221.984 197.042 220.365 204.655 217.648C206.763 216.895 208.947 215.981 210.438 214.245C212.034 212.387 211.118 209.867 211.038 207.573C210.847 202.015 211.38 196.456 212.623 191.035C214.827 181.42 220.936 173.564 222.474 163.908C223.624 156.691 223.31 149.59 225.413 142.463C227.04 136.936 229.052 131.741 228.14 125.849C227.36 120.81 224.618 116.029 220.426 113.109C217.208 110.867 213.141 109.805 209.24 110.27C206.403 110.609 201.84 110.168 199.517 111.994C198.568 112.738 197.836 113.703 197.049 114.602Z" fill="#B4E08E"/>
<path d="M166.766 215.301H42.5982C40.5421 215.301 38.8752 216.963 38.8752 219.014V219.015C38.8752 221.065 40.5421 222.728 42.5982 222.728H166.766C168.822 222.728 170.489 221.065 170.489 219.015V219.014C170.489 216.963 168.822 215.301 166.766 215.301Z" fill="#122C51"/>
<path d="M115.156 222.729H19.6462C15.8907 222.729 12.2826 219.692 11.586 215.948L0.121103 154.279C-0.575495 150.534 1.9048 147.499 5.65931 147.499H101.173C104.927 147.499 108.536 150.534 109.232 154.279L120.7 215.948C121.391 219.692 118.912 222.729 115.156 222.729Z" fill="#164778"/>
<path d="M60.19 187.85C61.4529 186.468 61.1251 184.119 59.4577 182.604C57.7904 181.088 55.4149 180.98 54.152 182.361C52.889 183.743 53.2169 186.092 54.8842 187.607C56.5516 189.123 58.9271 189.232 60.19 187.85Z" fill="#2D79AB"/>
<g opacity="0.2">
<path d="M181.929 61.8446C182.212 61.9022 182.487 61.9924 182.749 62.1134C183.518 62.4916 184.008 63.2918 184.216 64.1213C184.425 64.9509 184.387 65.82 184.349 66.6738C181.714 65.0928 178.791 64.0465 175.748 63.595C175.699 63.5879 175.822 62.4064 175.897 62.2858C176.19 61.8122 177.004 61.8274 177.504 61.7118C178.944 61.3802 180.497 61.512 181.929 61.8446Z" fill="#36353D"/>
</g>
<path d="M193.858 50.1519C191.006 50.1524 188.262 51.2359 186.183 53.182C184.104 55.1281 182.846 57.7908 182.665 60.6287C180.672 60.1892 178.61 60.1627 176.606 60.5506C176.133 57.6529 174.553 55.0502 172.199 53.2875C169.845 51.5247 166.898 50.7386 163.975 51.0938C161.053 51.4489 158.381 52.9177 156.52 55.1926C154.659 57.4676 153.752 60.3723 153.99 63.2987C154.228 66.225 155.592 68.9461 157.797 70.8922C160.001 72.8383 162.875 73.8586 165.817 73.7393C168.759 73.6201 171.54 72.3707 173.579 70.2526C175.618 68.1345 176.756 65.312 176.755 62.376V62.3689C178.9 62.016 180.442 62.0485 182.697 62.4643C182.916 64.6177 183.756 66.6615 185.116 68.3481C186.477 70.0346 188.299 71.2914 190.361 71.966C192.423 72.6406 194.638 72.7041 196.735 72.1488C198.833 71.5935 200.724 70.4433 202.18 68.8375C203.635 67.2318 204.592 65.2395 204.935 63.1022C205.277 60.9649 204.991 58.7744 204.11 56.7962C203.229 54.8181 201.791 53.1373 199.972 51.9576C198.152 50.7779 196.028 50.1499 193.858 50.1499V50.1519ZM165.353 71.7921C163.486 71.7921 161.661 71.24 160.108 70.2055C158.556 69.1711 157.346 67.7008 156.631 65.9807C155.917 64.2605 155.73 62.3676 156.094 60.5415C156.458 58.7153 157.358 57.0379 158.678 55.7214C159.998 54.4048 161.68 53.5082 163.511 53.145C165.342 52.7817 167.241 52.9681 168.966 53.6807C170.691 54.3932 172.165 55.5998 173.202 57.1479C174.239 58.696 174.793 60.5162 174.793 62.3781C174.793 64.8747 173.798 67.2691 172.028 69.0345C170.258 70.7999 167.857 71.7918 165.353 71.7921ZM193.858 70.6005C192.021 70.6003 190.225 70.0569 188.698 69.0391C187.171 68.0213 185.98 66.5747 185.278 64.8823C184.575 63.1899 184.391 61.3276 184.75 59.5311C185.108 57.7345 185.993 56.0843 187.292 54.7891C188.591 53.4939 190.245 52.6119 192.047 52.2546C193.849 51.8973 195.716 52.0808 197.413 52.7818C199.11 53.4829 200.561 54.67 201.581 56.1931C202.602 57.7162 203.146 59.5068 203.146 61.3386C203.146 62.5552 202.906 63.7599 202.44 64.884C201.973 66.008 201.289 67.0294 200.426 67.8898C199.564 68.7501 198.54 69.4326 197.413 69.8983C196.286 70.3639 195.078 70.6035 193.858 70.6035V70.6005Z" fill="#303243"/>
<path opacity="0.35" d="M168.797 60.6784C168.314 61.4603 167.796 62.2128 167.25 62.9419L169.355 58.4616C169.896 57.3096 168.604 56.3259 167.626 57.128C166.852 57.7642 166.128 58.4578 165.459 59.2029C166.011 58.0421 166.6 56.8971 167.227 55.7681C167.812 54.7185 166.329 53.4448 165.499 54.4345L157.691 63.6853C156.782 64.7623 158.335 66.322 159.252 65.2409L161.71 62.3274C161.022 64.0852 160.412 65.8751 159.88 67.6971C159.536 68.8867 161.286 69.6452 161.898 68.5449C162.444 67.5602 162.995 66.5755 163.572 65.604L162.374 68.1555C161.839 69.2923 163.13 70.3186 164.102 69.489C164.316 69.3075 164.522 69.1199 164.731 68.9333C165.207 69.3156 165.985 69.3633 166.402 68.693L170.703 61.7838C171.45 60.5791 169.542 59.4767 168.797 60.6784Z" fill="#F2F2F2"/>
<path opacity="0.35" d="M197.976 59.9442C197.493 60.7271 196.975 61.4796 196.428 62.2087L198.533 57.7284C199.074 56.5764 197.783 55.5927 196.805 56.3948C196.031 57.031 195.306 57.7246 194.638 58.4697C195.19 57.3089 195.78 56.1636 196.406 55.0339C196.992 53.9843 195.508 52.7116 194.677 53.7003L186.87 62.9521C185.961 64.0291 187.514 65.5888 188.43 64.5077L190.889 61.5942C190.201 63.352 189.591 65.1415 189.059 66.9629C188.714 68.1524 190.464 68.911 191.075 67.8107C191.621 66.827 192.173 65.8413 192.75 64.8698L191.551 67.4223C191.017 68.5591 192.308 69.5854 193.28 68.7558C193.494 68.5743 193.7 68.3857 193.908 68.1991C194.384 68.5814 195.162 68.6291 195.579 67.9588L199.881 61.0506C200.628 59.8448 198.728 58.7384 197.976 59.9442Z" fill="#F2F2F2"/>
<path d="M148.743 227L182.2 226.361L163.439 171.823L129.982 172.462L148.743 227Z" fill="#EAEEF7"/>
<path d="M230.906 204.503C229.304 204.63 227.703 204.765 226.103 204.909C223.542 205.137 221.084 205.334 218.532 205.731L210.187 207.026L193.497 209.618C187.992 210.473 182.392 211.33 176.858 210.619C175.536 210.449 174.205 210.188 172.872 210.272C171.54 210.356 170.161 210.843 169.38 211.88C168.599 212.916 168.649 214.565 169.72 215.336C168.656 216.735 169.313 219.026 170.981 219.713C170.853 220.078 170.828 220.472 170.911 220.851C170.993 221.23 171.179 221.578 171.448 221.858C171.724 222.142 172.081 222.336 172.471 222.413C172.83 222.488 173.268 222.4 173.599 222.515C173.421 223.086 173.468 223.545 174.037 223.947C174.461 224.245 174.993 224.352 175.51 224.441C176.469 224.598 177.437 224.69 178.409 224.715C179.273 224.736 180.201 224.806 181.053 224.715C183.059 224.512 185.025 224.063 187.001 223.691C206.96 219.939 228.272 224.476 247.813 219.229C250.26 218.572 252.919 217.543 253.867 215.375C254.793 213.252 253.683 210.773 252.007 209.056C249.494 206.481 245.819 205.06 242.115 204.512C238.412 203.964 234.635 204.209 230.906 204.503Z" fill="#FEA587"/>
<path d="M236.419 130.579C231.861 122.078 225.85 114.873 216.647 111.142C213.596 109.906 209.427 111.852 207.276 114.048C202.629 118.785 202.981 126.351 203.943 132.911C204.714 138.171 205.553 143.385 206.172 148.629C206.471 151.165 208.058 153.571 209.167 155.83C210.511 158.566 211.883 161.29 213.282 164C216.319 169.882 219.483 175.696 222.774 181.443C225.908 186.913 229.54 192.182 232.241 197.872C230.873 197.821 230.199 197.857 229.143 198.444C228.33 198.894 227.693 199.411 226.79 199.762C225.239 200.358 223.151 200.661 222.417 202.378C221.992 203.371 222.238 204.542 222.766 205.484C223.294 206.425 224.075 207.195 224.8 208.001C228.406 212.052 230.618 217.147 231.113 222.542L257.179 222.624C259.263 222.63 261.38 222.632 263.382 222.056C272.053 219.564 270.268 208.922 268.102 202.421C268.021 202.175 267.936 201.93 267.85 201.686C259.192 177.225 248.685 153.454 236.419 130.579Z" fill="#B4E08E"/>
</g>
<defs>
<clipPath id="clip0_4407_25077">
<rect width="274" height="227" fill="white"/>
</clipPath>
</defs>
</svg>
