<svg width="32" height="32" viewBox="0 0 32 32" fill="none" xmlns="http://www.w3.org/2000/svg">
<path fill-rule="evenodd" clip-rule="evenodd" d="M4.3335 9.33334C4.3335 8.78106 4.78121 8.33334 5.3335 8.33334H26.6668C27.2191 8.33334 27.6668 8.78106 27.6668 9.33334C27.6668 9.88563 27.2191 10.3333 26.6668 10.3333H5.3335C4.78121 10.3333 4.3335 9.88563 4.3335 9.33334ZM4.3335 16C4.3335 15.4477 4.78121 15 5.3335 15H26.6668C27.2191 15 27.6668 15.4477 27.6668 16C27.6668 16.5523 27.2191 17 26.6668 17H5.3335C4.78121 17 4.3335 16.5523 4.3335 16ZM4.3335 22.6667C4.3335 22.1144 4.78121 21.6667 5.3335 21.6667H26.6668C27.2191 21.6667 27.6668 22.1144 27.6668 22.6667C27.6668 23.219 27.2191 23.6667 26.6668 23.6667H5.3335C4.78121 23.6667 4.3335 23.219 4.3335 22.6667Z" fill="#757575"/>
</svg>
